<mxfile host="app.diagrams.net" modified="2022-03-21T14:37:36.101Z" agent="5.0 (Windows NT 10.0; Win64; x64) AppleWebKit/537.36 (KHTML, like Gecko) Chrome/99.0.4844.51 Safari/537.36 Edg/99.0.1150.39" etag="wsKHSaGlBGeBX1uOz8Q2" version="17.1.3" type="github" pages="4">
  <diagram id="pXa5YeEDyHt8pJTxcKcW" name="fmaddsub_ps">
    <mxGraphModel dx="1422" dy="754" grid="1" gridSize="10" guides="1" tooltips="1" connect="1" arrows="1" fold="1" page="1" pageScale="1" pageWidth="827" pageHeight="1169" math="0" shadow="0">
      <root>
        <mxCell id="0" />
        <mxCell id="1" parent="0" />
        <mxCell id="WfSF1Zc66INtd5Ujh2xH-1" value="" style="shape=table;startSize=0;container=1;collapsible=0;childLayout=tableLayout;fillColor=#dae8fc;strokeColor=#6c8ebf;" vertex="1" parent="1">
          <mxGeometry x="160" y="160" width="480" height="40" as="geometry" />
        </mxCell>
        <mxCell id="WfSF1Zc66INtd5Ujh2xH-2" value="" style="shape=tableRow;horizontal=0;startSize=0;swimlaneHead=0;swimlaneBody=0;top=0;left=0;bottom=0;right=0;collapsible=0;dropTarget=0;fillColor=#dae8fc;points=[[0,0.5],[1,0.5]];portConstraint=eastwest;strokeColor=#6c8ebf;" vertex="1" parent="WfSF1Zc66INtd5Ujh2xH-1">
          <mxGeometry width="480" height="40" as="geometry" />
        </mxCell>
        <mxCell id="WfSF1Zc66INtd5Ujh2xH-3" value="a7" style="shape=partialRectangle;html=1;whiteSpace=wrap;connectable=0;overflow=hidden;fillColor=#d5e8d4;top=0;left=0;bottom=0;right=0;pointerEvents=1;strokeColor=#82b366;" vertex="1" parent="WfSF1Zc66INtd5Ujh2xH-2">
          <mxGeometry width="60" height="40" as="geometry">
            <mxRectangle width="60" height="40" as="alternateBounds" />
          </mxGeometry>
        </mxCell>
        <mxCell id="WfSF1Zc66INtd5Ujh2xH-4" value="a6" style="shape=partialRectangle;html=1;whiteSpace=wrap;connectable=0;overflow=hidden;fillColor=#dae8fc;top=0;left=0;bottom=0;right=0;pointerEvents=1;strokeColor=#6c8ebf;" vertex="1" parent="WfSF1Zc66INtd5Ujh2xH-2">
          <mxGeometry x="60" width="60" height="40" as="geometry">
            <mxRectangle width="60" height="40" as="alternateBounds" />
          </mxGeometry>
        </mxCell>
        <mxCell id="WfSF1Zc66INtd5Ujh2xH-5" value="a5" style="shape=partialRectangle;html=1;whiteSpace=wrap;connectable=0;overflow=hidden;fillColor=#d5e8d4;top=0;left=0;bottom=0;right=0;pointerEvents=1;strokeColor=#82b366;" vertex="1" parent="WfSF1Zc66INtd5Ujh2xH-2">
          <mxGeometry x="120" width="60" height="40" as="geometry">
            <mxRectangle width="60" height="40" as="alternateBounds" />
          </mxGeometry>
        </mxCell>
        <mxCell id="WfSF1Zc66INtd5Ujh2xH-6" value="a4" style="shape=partialRectangle;html=1;whiteSpace=wrap;connectable=0;overflow=hidden;fillColor=#dae8fc;top=0;left=0;bottom=0;right=0;pointerEvents=1;strokeColor=#6c8ebf;" vertex="1" parent="WfSF1Zc66INtd5Ujh2xH-2">
          <mxGeometry x="180" width="60" height="40" as="geometry">
            <mxRectangle width="60" height="40" as="alternateBounds" />
          </mxGeometry>
        </mxCell>
        <mxCell id="WfSF1Zc66INtd5Ujh2xH-7" value="a3" style="shape=partialRectangle;html=1;whiteSpace=wrap;connectable=0;overflow=hidden;fillColor=#d5e8d4;top=0;left=0;bottom=0;right=0;pointerEvents=1;strokeColor=#82b366;" vertex="1" parent="WfSF1Zc66INtd5Ujh2xH-2">
          <mxGeometry x="240" width="60" height="40" as="geometry">
            <mxRectangle width="60" height="40" as="alternateBounds" />
          </mxGeometry>
        </mxCell>
        <mxCell id="WfSF1Zc66INtd5Ujh2xH-8" value="a2" style="shape=partialRectangle;html=1;whiteSpace=wrap;connectable=0;overflow=hidden;fillColor=#dae8fc;top=0;left=0;bottom=0;right=0;pointerEvents=1;strokeColor=#6c8ebf;" vertex="1" parent="WfSF1Zc66INtd5Ujh2xH-2">
          <mxGeometry x="300" width="60" height="40" as="geometry">
            <mxRectangle width="60" height="40" as="alternateBounds" />
          </mxGeometry>
        </mxCell>
        <mxCell id="WfSF1Zc66INtd5Ujh2xH-9" value="a1" style="shape=partialRectangle;html=1;whiteSpace=wrap;connectable=0;overflow=hidden;fillColor=#d5e8d4;top=0;left=0;bottom=0;right=0;pointerEvents=1;strokeColor=#82b366;" vertex="1" parent="WfSF1Zc66INtd5Ujh2xH-2">
          <mxGeometry x="360" width="60" height="40" as="geometry">
            <mxRectangle width="60" height="40" as="alternateBounds" />
          </mxGeometry>
        </mxCell>
        <mxCell id="WfSF1Zc66INtd5Ujh2xH-10" value="a0" style="shape=partialRectangle;html=1;whiteSpace=wrap;connectable=0;overflow=hidden;fillColor=#dae8fc;top=0;left=0;bottom=0;right=0;pointerEvents=1;strokeColor=#6c8ebf;" vertex="1" parent="WfSF1Zc66INtd5Ujh2xH-2">
          <mxGeometry x="420" width="60" height="40" as="geometry">
            <mxRectangle width="60" height="40" as="alternateBounds" />
          </mxGeometry>
        </mxCell>
        <mxCell id="WfSF1Zc66INtd5Ujh2xH-11" value="" style="shape=table;startSize=0;container=1;collapsible=0;childLayout=tableLayout;fillColor=#dae8fc;strokeColor=#6c8ebf;" vertex="1" parent="1">
          <mxGeometry x="160" y="280" width="480" height="40" as="geometry" />
        </mxCell>
        <mxCell id="WfSF1Zc66INtd5Ujh2xH-12" value="" style="shape=tableRow;horizontal=0;startSize=0;swimlaneHead=0;swimlaneBody=0;top=0;left=0;bottom=0;right=0;collapsible=0;dropTarget=0;fillColor=#dae8fc;points=[[0,0.5],[1,0.5]];portConstraint=eastwest;strokeColor=#6c8ebf;" vertex="1" parent="WfSF1Zc66INtd5Ujh2xH-11">
          <mxGeometry width="480" height="40" as="geometry" />
        </mxCell>
        <mxCell id="WfSF1Zc66INtd5Ujh2xH-13" value="b7" style="shape=partialRectangle;html=1;whiteSpace=wrap;connectable=0;overflow=hidden;fillColor=#d5e8d4;top=0;left=0;bottom=0;right=0;pointerEvents=1;strokeColor=#82b366;" vertex="1" parent="WfSF1Zc66INtd5Ujh2xH-12">
          <mxGeometry width="60" height="40" as="geometry">
            <mxRectangle width="60" height="40" as="alternateBounds" />
          </mxGeometry>
        </mxCell>
        <mxCell id="WfSF1Zc66INtd5Ujh2xH-14" value="b6" style="shape=partialRectangle;html=1;whiteSpace=wrap;connectable=0;overflow=hidden;fillColor=#dae8fc;top=0;left=0;bottom=0;right=0;pointerEvents=1;strokeColor=#6c8ebf;" vertex="1" parent="WfSF1Zc66INtd5Ujh2xH-12">
          <mxGeometry x="60" width="60" height="40" as="geometry">
            <mxRectangle width="60" height="40" as="alternateBounds" />
          </mxGeometry>
        </mxCell>
        <mxCell id="WfSF1Zc66INtd5Ujh2xH-15" value="b5" style="shape=partialRectangle;html=1;whiteSpace=wrap;connectable=0;overflow=hidden;fillColor=#d5e8d4;top=0;left=0;bottom=0;right=0;pointerEvents=1;strokeColor=#82b366;" vertex="1" parent="WfSF1Zc66INtd5Ujh2xH-12">
          <mxGeometry x="120" width="60" height="40" as="geometry">
            <mxRectangle width="60" height="40" as="alternateBounds" />
          </mxGeometry>
        </mxCell>
        <mxCell id="WfSF1Zc66INtd5Ujh2xH-16" value="b4" style="shape=partialRectangle;html=1;whiteSpace=wrap;connectable=0;overflow=hidden;fillColor=#dae8fc;top=0;left=0;bottom=0;right=0;pointerEvents=1;strokeColor=#6c8ebf;" vertex="1" parent="WfSF1Zc66INtd5Ujh2xH-12">
          <mxGeometry x="180" width="60" height="40" as="geometry">
            <mxRectangle width="60" height="40" as="alternateBounds" />
          </mxGeometry>
        </mxCell>
        <mxCell id="WfSF1Zc66INtd5Ujh2xH-17" value="b3" style="shape=partialRectangle;html=1;whiteSpace=wrap;connectable=0;overflow=hidden;fillColor=#d5e8d4;top=0;left=0;bottom=0;right=0;pointerEvents=1;strokeColor=#82b366;" vertex="1" parent="WfSF1Zc66INtd5Ujh2xH-12">
          <mxGeometry x="240" width="60" height="40" as="geometry">
            <mxRectangle width="60" height="40" as="alternateBounds" />
          </mxGeometry>
        </mxCell>
        <mxCell id="WfSF1Zc66INtd5Ujh2xH-18" value="b2" style="shape=partialRectangle;html=1;whiteSpace=wrap;connectable=0;overflow=hidden;fillColor=#dae8fc;top=0;left=0;bottom=0;right=0;pointerEvents=1;strokeColor=#6c8ebf;" vertex="1" parent="WfSF1Zc66INtd5Ujh2xH-12">
          <mxGeometry x="300" width="60" height="40" as="geometry">
            <mxRectangle width="60" height="40" as="alternateBounds" />
          </mxGeometry>
        </mxCell>
        <mxCell id="WfSF1Zc66INtd5Ujh2xH-19" value="b1" style="shape=partialRectangle;html=1;whiteSpace=wrap;connectable=0;overflow=hidden;fillColor=#d5e8d4;top=0;left=0;bottom=0;right=0;pointerEvents=1;strokeColor=#82b366;" vertex="1" parent="WfSF1Zc66INtd5Ujh2xH-12">
          <mxGeometry x="360" width="60" height="40" as="geometry">
            <mxRectangle width="60" height="40" as="alternateBounds" />
          </mxGeometry>
        </mxCell>
        <mxCell id="WfSF1Zc66INtd5Ujh2xH-20" value="b0" style="shape=partialRectangle;html=1;whiteSpace=wrap;connectable=0;overflow=hidden;fillColor=#dae8fc;top=0;left=0;bottom=0;right=0;pointerEvents=1;strokeColor=#6c8ebf;" vertex="1" parent="WfSF1Zc66INtd5Ujh2xH-12">
          <mxGeometry x="420" width="60" height="40" as="geometry">
            <mxRectangle width="60" height="40" as="alternateBounds" />
          </mxGeometry>
        </mxCell>
        <mxCell id="WfSF1Zc66INtd5Ujh2xH-21" value="__m256" style="text;html=1;strokeColor=#6c8ebf;fillColor=none;align=center;verticalAlign=middle;whiteSpace=wrap;rounded=0;" vertex="1" parent="1">
          <mxGeometry x="80" y="165" width="60" height="30" as="geometry" />
        </mxCell>
        <mxCell id="WfSF1Zc66INtd5Ujh2xH-22" value="__m256" style="text;html=1;strokeColor=#6c8ebf;fillColor=none;align=center;verticalAlign=middle;whiteSpace=wrap;rounded=0;" vertex="1" parent="1">
          <mxGeometry x="80" y="285" width="60" height="30" as="geometry" />
        </mxCell>
        <mxCell id="WfSF1Zc66INtd5Ujh2xH-23" value="" style="shape=table;startSize=0;container=1;collapsible=0;childLayout=tableLayout;fillColor=#dae8fc;strokeColor=#6c8ebf;" vertex="1" parent="1">
          <mxGeometry x="160" y="400" width="480" height="40" as="geometry" />
        </mxCell>
        <mxCell id="WfSF1Zc66INtd5Ujh2xH-24" value="" style="shape=tableRow;horizontal=0;startSize=0;swimlaneHead=0;swimlaneBody=0;top=0;left=0;bottom=0;right=0;collapsible=0;dropTarget=0;fillColor=#dae8fc;points=[[0,0.5],[1,0.5]];portConstraint=eastwest;strokeColor=#6c8ebf;" vertex="1" parent="WfSF1Zc66INtd5Ujh2xH-23">
          <mxGeometry width="480" height="40" as="geometry" />
        </mxCell>
        <mxCell id="WfSF1Zc66INtd5Ujh2xH-25" value="c7" style="shape=partialRectangle;html=1;whiteSpace=wrap;connectable=0;overflow=hidden;fillColor=#d5e8d4;top=0;left=0;bottom=0;right=0;pointerEvents=1;strokeColor=#82b366;" vertex="1" parent="WfSF1Zc66INtd5Ujh2xH-24">
          <mxGeometry width="60" height="40" as="geometry">
            <mxRectangle width="60" height="40" as="alternateBounds" />
          </mxGeometry>
        </mxCell>
        <mxCell id="WfSF1Zc66INtd5Ujh2xH-26" value="c6" style="shape=partialRectangle;html=1;whiteSpace=wrap;connectable=0;overflow=hidden;fillColor=#dae8fc;top=0;left=0;bottom=0;right=0;pointerEvents=1;strokeColor=#6c8ebf;" vertex="1" parent="WfSF1Zc66INtd5Ujh2xH-24">
          <mxGeometry x="60" width="60" height="40" as="geometry">
            <mxRectangle width="60" height="40" as="alternateBounds" />
          </mxGeometry>
        </mxCell>
        <mxCell id="WfSF1Zc66INtd5Ujh2xH-27" value="c5" style="shape=partialRectangle;html=1;whiteSpace=wrap;connectable=0;overflow=hidden;fillColor=#d5e8d4;top=0;left=0;bottom=0;right=0;pointerEvents=1;strokeColor=#82b366;" vertex="1" parent="WfSF1Zc66INtd5Ujh2xH-24">
          <mxGeometry x="120" width="60" height="40" as="geometry">
            <mxRectangle width="60" height="40" as="alternateBounds" />
          </mxGeometry>
        </mxCell>
        <mxCell id="WfSF1Zc66INtd5Ujh2xH-28" value="c4" style="shape=partialRectangle;html=1;whiteSpace=wrap;connectable=0;overflow=hidden;fillColor=#dae8fc;top=0;left=0;bottom=0;right=0;pointerEvents=1;strokeColor=#6c8ebf;" vertex="1" parent="WfSF1Zc66INtd5Ujh2xH-24">
          <mxGeometry x="180" width="60" height="40" as="geometry">
            <mxRectangle width="60" height="40" as="alternateBounds" />
          </mxGeometry>
        </mxCell>
        <mxCell id="WfSF1Zc66INtd5Ujh2xH-29" value="c3" style="shape=partialRectangle;html=1;whiteSpace=wrap;connectable=0;overflow=hidden;fillColor=#d5e8d4;top=0;left=0;bottom=0;right=0;pointerEvents=1;strokeColor=#82b366;" vertex="1" parent="WfSF1Zc66INtd5Ujh2xH-24">
          <mxGeometry x="240" width="60" height="40" as="geometry">
            <mxRectangle width="60" height="40" as="alternateBounds" />
          </mxGeometry>
        </mxCell>
        <mxCell id="WfSF1Zc66INtd5Ujh2xH-30" value="c2" style="shape=partialRectangle;html=1;whiteSpace=wrap;connectable=0;overflow=hidden;fillColor=#dae8fc;top=0;left=0;bottom=0;right=0;pointerEvents=1;strokeColor=#6c8ebf;" vertex="1" parent="WfSF1Zc66INtd5Ujh2xH-24">
          <mxGeometry x="300" width="60" height="40" as="geometry">
            <mxRectangle width="60" height="40" as="alternateBounds" />
          </mxGeometry>
        </mxCell>
        <mxCell id="WfSF1Zc66INtd5Ujh2xH-31" value="c1" style="shape=partialRectangle;html=1;whiteSpace=wrap;connectable=0;overflow=hidden;fillColor=#d5e8d4;top=0;left=0;bottom=0;right=0;pointerEvents=1;strokeColor=#82b366;" vertex="1" parent="WfSF1Zc66INtd5Ujh2xH-24">
          <mxGeometry x="360" width="60" height="40" as="geometry">
            <mxRectangle width="60" height="40" as="alternateBounds" />
          </mxGeometry>
        </mxCell>
        <mxCell id="WfSF1Zc66INtd5Ujh2xH-32" value="c0" style="shape=partialRectangle;html=1;whiteSpace=wrap;connectable=0;overflow=hidden;fillColor=#dae8fc;top=0;left=0;bottom=0;right=0;pointerEvents=1;strokeColor=#6c8ebf;" vertex="1" parent="WfSF1Zc66INtd5Ujh2xH-24">
          <mxGeometry x="420" width="60" height="40" as="geometry">
            <mxRectangle width="60" height="40" as="alternateBounds" />
          </mxGeometry>
        </mxCell>
        <mxCell id="WfSF1Zc66INtd5Ujh2xH-33" value="__m256" style="text;html=1;strokeColor=#6c8ebf;fillColor=none;align=center;verticalAlign=middle;whiteSpace=wrap;rounded=0;" vertex="1" parent="1">
          <mxGeometry x="80" y="405" width="60" height="30" as="geometry" />
        </mxCell>
        <mxCell id="WfSF1Zc66INtd5Ujh2xH-34" value="" style="shape=table;startSize=0;container=1;collapsible=0;childLayout=tableLayout;fillColor=#dae8fc;strokeColor=#6c8ebf;" vertex="1" parent="1">
          <mxGeometry x="160" y="520" width="480" height="40" as="geometry" />
        </mxCell>
        <mxCell id="WfSF1Zc66INtd5Ujh2xH-35" value="" style="shape=tableRow;horizontal=0;startSize=0;swimlaneHead=0;swimlaneBody=0;top=0;left=0;bottom=0;right=0;collapsible=0;dropTarget=0;fillColor=#dae8fc;points=[[0,0.5],[1,0.5]];portConstraint=eastwest;strokeColor=#6c8ebf;" vertex="1" parent="WfSF1Zc66INtd5Ujh2xH-34">
          <mxGeometry width="480" height="40" as="geometry" />
        </mxCell>
        <mxCell id="WfSF1Zc66INtd5Ujh2xH-36" value="a7*b7-c7" style="shape=partialRectangle;html=1;whiteSpace=wrap;connectable=0;overflow=hidden;fillColor=#d5e8d4;top=0;left=0;bottom=0;right=0;pointerEvents=1;strokeColor=#000000;" vertex="1" parent="WfSF1Zc66INtd5Ujh2xH-35">
          <mxGeometry width="60" height="40" as="geometry">
            <mxRectangle width="60" height="40" as="alternateBounds" />
          </mxGeometry>
        </mxCell>
        <mxCell id="WfSF1Zc66INtd5Ujh2xH-37" value="a6*b6-c6" style="shape=partialRectangle;html=1;whiteSpace=wrap;connectable=0;overflow=hidden;fillColor=#dae8fc;top=0;left=0;bottom=0;right=0;pointerEvents=1;strokeColor=#6c8ebf;" vertex="1" parent="WfSF1Zc66INtd5Ujh2xH-35">
          <mxGeometry x="60" width="60" height="40" as="geometry">
            <mxRectangle width="60" height="40" as="alternateBounds" />
          </mxGeometry>
        </mxCell>
        <mxCell id="WfSF1Zc66INtd5Ujh2xH-38" value="a5*b5+c5" style="shape=partialRectangle;html=1;whiteSpace=wrap;connectable=0;overflow=hidden;fillColor=#d5e8d4;top=0;left=0;bottom=0;right=0;pointerEvents=1;strokeColor=#000000;" vertex="1" parent="WfSF1Zc66INtd5Ujh2xH-35">
          <mxGeometry x="120" width="60" height="40" as="geometry">
            <mxRectangle width="60" height="40" as="alternateBounds" />
          </mxGeometry>
        </mxCell>
        <mxCell id="WfSF1Zc66INtd5Ujh2xH-39" value="a4*b4-c4" style="shape=partialRectangle;html=1;whiteSpace=wrap;connectable=0;overflow=hidden;fillColor=#dae8fc;top=0;left=0;bottom=0;right=0;pointerEvents=1;strokeColor=#6c8ebf;" vertex="1" parent="WfSF1Zc66INtd5Ujh2xH-35">
          <mxGeometry x="180" width="60" height="40" as="geometry">
            <mxRectangle width="60" height="40" as="alternateBounds" />
          </mxGeometry>
        </mxCell>
        <mxCell id="WfSF1Zc66INtd5Ujh2xH-40" value="a3*b3+c3" style="shape=partialRectangle;html=1;whiteSpace=wrap;connectable=0;overflow=hidden;fillColor=#d5e8d4;top=0;left=0;bottom=0;right=0;pointerEvents=1;strokeColor=#000000;" vertex="1" parent="WfSF1Zc66INtd5Ujh2xH-35">
          <mxGeometry x="240" width="60" height="40" as="geometry">
            <mxRectangle width="60" height="40" as="alternateBounds" />
          </mxGeometry>
        </mxCell>
        <mxCell id="WfSF1Zc66INtd5Ujh2xH-41" value="a2*b2-c2" style="shape=partialRectangle;html=1;whiteSpace=wrap;connectable=0;overflow=hidden;fillColor=#dae8fc;top=0;left=0;bottom=0;right=0;pointerEvents=1;strokeColor=#6c8ebf;" vertex="1" parent="WfSF1Zc66INtd5Ujh2xH-35">
          <mxGeometry x="300" width="60" height="40" as="geometry">
            <mxRectangle width="60" height="40" as="alternateBounds" />
          </mxGeometry>
        </mxCell>
        <mxCell id="WfSF1Zc66INtd5Ujh2xH-42" value="a1*b1+c1" style="shape=partialRectangle;html=1;whiteSpace=wrap;connectable=0;overflow=hidden;fillColor=#d5e8d4;top=0;left=0;bottom=0;right=0;pointerEvents=1;strokeColor=#000000;" vertex="1" parent="WfSF1Zc66INtd5Ujh2xH-35">
          <mxGeometry x="360" width="60" height="40" as="geometry">
            <mxRectangle width="60" height="40" as="alternateBounds" />
          </mxGeometry>
        </mxCell>
        <mxCell id="WfSF1Zc66INtd5Ujh2xH-43" value="a0*b0-c0" style="shape=partialRectangle;html=1;whiteSpace=wrap;connectable=0;overflow=hidden;fillColor=#dae8fc;top=0;left=0;bottom=0;right=0;pointerEvents=1;strokeColor=#6c8ebf;" vertex="1" parent="WfSF1Zc66INtd5Ujh2xH-35">
          <mxGeometry x="420" width="60" height="40" as="geometry">
            <mxRectangle width="60" height="40" as="alternateBounds" />
          </mxGeometry>
        </mxCell>
        <mxCell id="WfSF1Zc66INtd5Ujh2xH-44" value="__m256" style="text;html=1;strokeColor=#6c8ebf;fillColor=none;align=center;verticalAlign=middle;whiteSpace=wrap;rounded=0;" vertex="1" parent="1">
          <mxGeometry x="80" y="525" width="60" height="30" as="geometry" />
        </mxCell>
        <mxCell id="WfSF1Zc66INtd5Ujh2xH-55" value="" style="endArrow=none;html=1;rounded=0;entryX=0.123;entryY=-0.025;entryDx=0;entryDy=0;entryPerimeter=0;strokeColor=default;dashed=1;exitX=0.123;exitY=0.975;exitDx=0;exitDy=0;exitPerimeter=0;" edge="1" parent="1" source="WfSF1Zc66INtd5Ujh2xH-24" target="WfSF1Zc66INtd5Ujh2xH-2">
          <mxGeometry width="50" height="50" relative="1" as="geometry">
            <mxPoint x="210" y="170" as="sourcePoint" />
            <mxPoint x="220" y="120" as="targetPoint" />
          </mxGeometry>
        </mxCell>
        <mxCell id="WfSF1Zc66INtd5Ujh2xH-56" value="" style="endArrow=none;html=1;rounded=0;exitX=0.25;exitY=1;exitDx=0;exitDy=0;entryX=0.123;entryY=-0.025;entryDx=0;entryDy=0;entryPerimeter=0;strokeColor=default;dashed=1;startArrow=none;" edge="1" parent="1" source="WfSF1Zc66INtd5Ujh2xH-23">
          <mxGeometry width="50" height="50" relative="1" as="geometry">
            <mxPoint x="200" y="460" as="sourcePoint" />
            <mxPoint x="279.99999999999994" y="160" as="targetPoint" />
          </mxGeometry>
        </mxCell>
        <mxCell id="WfSF1Zc66INtd5Ujh2xH-57" value="" style="endArrow=none;html=1;rounded=0;entryX=0.123;entryY=-0.025;entryDx=0;entryDy=0;entryPerimeter=0;strokeColor=default;dashed=1;" edge="1" parent="1">
          <mxGeometry width="50" height="50" relative="1" as="geometry">
            <mxPoint x="340" y="440" as="sourcePoint" />
            <mxPoint x="339.99999999999994" y="160" as="targetPoint" />
          </mxGeometry>
        </mxCell>
        <mxCell id="WfSF1Zc66INtd5Ujh2xH-58" value="" style="endArrow=none;html=1;rounded=0;entryX=0.123;entryY=-0.025;entryDx=0;entryDy=0;entryPerimeter=0;strokeColor=default;dashed=1;exitX=0.502;exitY=0.975;exitDx=0;exitDy=0;exitPerimeter=0;" edge="1" parent="1" source="WfSF1Zc66INtd5Ujh2xH-24">
          <mxGeometry width="50" height="50" relative="1" as="geometry">
            <mxPoint x="399.5" y="562" as="sourcePoint" />
            <mxPoint x="399.5" y="160" as="targetPoint" />
          </mxGeometry>
        </mxCell>
        <mxCell id="WfSF1Zc66INtd5Ujh2xH-59" value="" style="endArrow=none;html=1;rounded=0;entryX=0.123;entryY=-0.025;entryDx=0;entryDy=0;entryPerimeter=0;strokeColor=default;dashed=1;" edge="1" parent="1">
          <mxGeometry width="50" height="50" relative="1" as="geometry">
            <mxPoint x="460" y="440" as="sourcePoint" />
            <mxPoint x="460" y="160" as="targetPoint" />
          </mxGeometry>
        </mxCell>
        <mxCell id="WfSF1Zc66INtd5Ujh2xH-60" value="" style="endArrow=none;html=1;rounded=0;exitX=0.75;exitY=1;exitDx=0;exitDy=0;entryX=0.123;entryY=-0.025;entryDx=0;entryDy=0;entryPerimeter=0;strokeColor=default;dashed=1;" edge="1" parent="1" source="WfSF1Zc66INtd5Ujh2xH-23">
          <mxGeometry width="50" height="50" relative="1" as="geometry">
            <mxPoint x="520" y="562" as="sourcePoint" />
            <mxPoint x="520" y="160" as="targetPoint" />
          </mxGeometry>
        </mxCell>
        <mxCell id="WfSF1Zc66INtd5Ujh2xH-61" value="" style="endArrow=none;html=1;rounded=0;entryX=0.123;entryY=-0.025;entryDx=0;entryDy=0;entryPerimeter=0;strokeColor=default;dashed=1;" edge="1" parent="1">
          <mxGeometry width="50" height="50" relative="1" as="geometry">
            <mxPoint x="580" y="440" as="sourcePoint" />
            <mxPoint x="580" y="158" as="targetPoint" />
          </mxGeometry>
        </mxCell>
        <mxCell id="WfSF1Zc66INtd5Ujh2xH-62" value="&lt;font style=&quot;font-size: 18px&quot;&gt;*&lt;/font&gt;" style="text;html=1;align=center;verticalAlign=middle;resizable=0;points=[];autosize=1;strokeColor=#b85450;fillColor=#f8cecc;" vertex="1" parent="1">
          <mxGeometry x="180" y="230" width="20" height="20" as="geometry" />
        </mxCell>
        <mxCell id="WfSF1Zc66INtd5Ujh2xH-63" value="&lt;font style=&quot;font-size: 18px&quot;&gt;*&lt;/font&gt;" style="text;html=1;align=center;verticalAlign=middle;resizable=0;points=[];autosize=1;strokeColor=#b85450;fillColor=#f8cecc;" vertex="1" parent="1">
          <mxGeometry x="240" y="230" width="20" height="20" as="geometry" />
        </mxCell>
        <mxCell id="WfSF1Zc66INtd5Ujh2xH-64" value="&lt;font style=&quot;font-size: 18px&quot;&gt;*&lt;/font&gt;" style="text;html=1;align=center;verticalAlign=middle;resizable=0;points=[];autosize=1;strokeColor=#b85450;fillColor=#f8cecc;" vertex="1" parent="1">
          <mxGeometry x="300" y="230" width="20" height="20" as="geometry" />
        </mxCell>
        <mxCell id="WfSF1Zc66INtd5Ujh2xH-65" value="&lt;font style=&quot;font-size: 18px&quot;&gt;*&lt;/font&gt;" style="text;html=1;align=center;verticalAlign=middle;resizable=0;points=[];autosize=1;strokeColor=#b85450;fillColor=#f8cecc;" vertex="1" parent="1">
          <mxGeometry x="360" y="230" width="20" height="20" as="geometry" />
        </mxCell>
        <mxCell id="WfSF1Zc66INtd5Ujh2xH-66" value="&lt;font style=&quot;font-size: 18px&quot;&gt;*&lt;/font&gt;" style="text;html=1;align=center;verticalAlign=middle;resizable=0;points=[];autosize=1;strokeColor=#b85450;fillColor=#f8cecc;" vertex="1" parent="1">
          <mxGeometry x="420" y="230" width="20" height="20" as="geometry" />
        </mxCell>
        <mxCell id="WfSF1Zc66INtd5Ujh2xH-67" value="&lt;font style=&quot;font-size: 18px&quot;&gt;*&lt;/font&gt;" style="text;html=1;align=center;verticalAlign=middle;resizable=0;points=[];autosize=1;strokeColor=#b85450;fillColor=#f8cecc;" vertex="1" parent="1">
          <mxGeometry x="480" y="230" width="20" height="20" as="geometry" />
        </mxCell>
        <mxCell id="WfSF1Zc66INtd5Ujh2xH-68" value="&lt;font style=&quot;font-size: 18px&quot;&gt;*&lt;/font&gt;" style="text;html=1;align=center;verticalAlign=middle;resizable=0;points=[];autosize=1;strokeColor=#b85450;fillColor=#f8cecc;" vertex="1" parent="1">
          <mxGeometry x="540" y="230" width="20" height="20" as="geometry" />
        </mxCell>
        <mxCell id="WfSF1Zc66INtd5Ujh2xH-69" value="&lt;font style=&quot;font-size: 18px&quot;&gt;*&lt;/font&gt;" style="text;html=1;align=center;verticalAlign=middle;resizable=0;points=[];autosize=1;strokeColor=#b85450;fillColor=#f8cecc;" vertex="1" parent="1">
          <mxGeometry x="600" y="230" width="20" height="20" as="geometry" />
        </mxCell>
        <mxCell id="WfSF1Zc66INtd5Ujh2xH-70" value="&lt;font style=&quot;font-size: 18px&quot;&gt;-&lt;/font&gt;" style="text;html=1;align=center;verticalAlign=middle;resizable=0;points=[];autosize=1;strokeColor=#b85450;fillColor=#f8cecc;" vertex="1" parent="1">
          <mxGeometry x="600" y="350" width="20" height="20" as="geometry" />
        </mxCell>
        <mxCell id="WfSF1Zc66INtd5Ujh2xH-71" value="&lt;font style=&quot;font-size: 18px&quot;&gt;-&lt;/font&gt;" style="text;html=1;align=center;verticalAlign=middle;resizable=0;points=[];autosize=1;strokeColor=#b85450;fillColor=#f8cecc;" vertex="1" parent="1">
          <mxGeometry x="480" y="350" width="20" height="20" as="geometry" />
        </mxCell>
        <mxCell id="WfSF1Zc66INtd5Ujh2xH-72" value="&lt;font style=&quot;font-size: 18px&quot;&gt;-&lt;/font&gt;" style="text;html=1;align=center;verticalAlign=middle;resizable=0;points=[];autosize=1;strokeColor=#b85450;fillColor=#f8cecc;" vertex="1" parent="1">
          <mxGeometry x="360" y="350" width="20" height="20" as="geometry" />
        </mxCell>
        <mxCell id="WfSF1Zc66INtd5Ujh2xH-73" value="&lt;font style=&quot;font-size: 18px&quot;&gt;-&lt;/font&gt;" style="text;html=1;align=center;verticalAlign=middle;resizable=0;points=[];autosize=1;strokeColor=#b85450;fillColor=#f8cecc;" vertex="1" parent="1">
          <mxGeometry x="240" y="350" width="20" height="20" as="geometry" />
        </mxCell>
        <mxCell id="WfSF1Zc66INtd5Ujh2xH-74" value="&lt;font style=&quot;font-size: 18px&quot;&gt;+&lt;/font&gt;" style="text;html=1;align=center;verticalAlign=middle;resizable=0;points=[];autosize=1;strokeColor=#b85450;fillColor=#f8cecc;" vertex="1" parent="1">
          <mxGeometry x="175" y="350" width="30" height="20" as="geometry" />
        </mxCell>
        <mxCell id="WfSF1Zc66INtd5Ujh2xH-75" value="&lt;font style=&quot;font-size: 18px&quot;&gt;+&lt;/font&gt;" style="text;html=1;align=center;verticalAlign=middle;resizable=0;points=[];autosize=1;strokeColor=#b85450;fillColor=#f8cecc;" vertex="1" parent="1">
          <mxGeometry x="295" y="350" width="30" height="20" as="geometry" />
        </mxCell>
        <mxCell id="WfSF1Zc66INtd5Ujh2xH-76" value="&lt;font style=&quot;font-size: 18px&quot;&gt;+&lt;/font&gt;" style="text;html=1;align=center;verticalAlign=middle;resizable=0;points=[];autosize=1;strokeColor=#b85450;fillColor=#f8cecc;" vertex="1" parent="1">
          <mxGeometry x="415" y="350" width="30" height="20" as="geometry" />
        </mxCell>
        <mxCell id="WfSF1Zc66INtd5Ujh2xH-77" value="&lt;font style=&quot;font-size: 18px&quot;&gt;+&lt;/font&gt;" style="text;html=1;align=center;verticalAlign=middle;resizable=0;points=[];autosize=1;strokeColor=#b85450;fillColor=#f8cecc;" vertex="1" parent="1">
          <mxGeometry x="535" y="350" width="30" height="20" as="geometry" />
        </mxCell>
        <mxCell id="WfSF1Zc66INtd5Ujh2xH-79" value="" style="rounded=0;whiteSpace=wrap;html=1;dashed=1;fontSize=18;strokeColor=#000000;fillColor=none;" vertex="1" parent="1">
          <mxGeometry x="40" y="490" width="640" height="90" as="geometry" />
        </mxCell>
        <mxCell id="WfSF1Zc66INtd5Ujh2xH-81" value="" style="rounded=0;whiteSpace=wrap;html=1;dashed=1;fontSize=18;strokeColor=#000000;fillColor=none;" vertex="1" parent="1">
          <mxGeometry x="40" y="90" width="640" height="380" as="geometry" />
        </mxCell>
        <mxCell id="WfSF1Zc66INtd5Ujh2xH-82" value="&lt;i&gt;__mm256_fmaddsub_ps(m1, m2, m3)&lt;/i&gt;" style="text;html=1;strokeColor=none;fillColor=none;align=center;verticalAlign=middle;whiteSpace=wrap;rounded=0;dashed=1;fontSize=18;" vertex="1" parent="1">
          <mxGeometry x="200" y="110" width="320" height="30" as="geometry" />
        </mxCell>
      </root>
    </mxGraphModel>
  </diagram>
  <diagram name="fmsubadd_ps" id="JcEM1-Vg8Dqtdh2Zx7FB">
    <mxGraphModel dx="1422" dy="754" grid="1" gridSize="10" guides="1" tooltips="1" connect="1" arrows="1" fold="1" page="1" pageScale="1" pageWidth="827" pageHeight="1169" math="0" shadow="0">
      <root>
        <mxCell id="h90DpESBa_Lf4_8nsp0X-0" />
        <mxCell id="h90DpESBa_Lf4_8nsp0X-1" parent="h90DpESBa_Lf4_8nsp0X-0" />
        <mxCell id="h90DpESBa_Lf4_8nsp0X-2" value="" style="shape=table;startSize=0;container=1;collapsible=0;childLayout=tableLayout;fillColor=#ffe6cc;strokeColor=#d79b00;" vertex="1" parent="h90DpESBa_Lf4_8nsp0X-1">
          <mxGeometry x="160" y="160" width="480" height="40" as="geometry" />
        </mxCell>
        <mxCell id="h90DpESBa_Lf4_8nsp0X-3" value="" style="shape=tableRow;horizontal=0;startSize=0;swimlaneHead=0;swimlaneBody=0;top=0;left=0;bottom=0;right=0;collapsible=0;dropTarget=0;fillColor=#ffe6cc;points=[[0,0.5],[1,0.5]];portConstraint=eastwest;strokeColor=#d79b00;" vertex="1" parent="h90DpESBa_Lf4_8nsp0X-2">
          <mxGeometry width="480" height="40" as="geometry" />
        </mxCell>
        <mxCell id="h90DpESBa_Lf4_8nsp0X-4" value="a7" style="shape=partialRectangle;html=1;whiteSpace=wrap;connectable=0;overflow=hidden;fillColor=#e1d5e7;top=0;left=0;bottom=0;right=0;pointerEvents=1;strokeColor=#9673a6;" vertex="1" parent="h90DpESBa_Lf4_8nsp0X-3">
          <mxGeometry width="60" height="40" as="geometry">
            <mxRectangle width="60" height="40" as="alternateBounds" />
          </mxGeometry>
        </mxCell>
        <mxCell id="h90DpESBa_Lf4_8nsp0X-5" value="a6" style="shape=partialRectangle;html=1;whiteSpace=wrap;connectable=0;overflow=hidden;fillColor=#ffe6cc;top=0;left=0;bottom=0;right=0;pointerEvents=1;strokeColor=#d79b00;" vertex="1" parent="h90DpESBa_Lf4_8nsp0X-3">
          <mxGeometry x="60" width="60" height="40" as="geometry">
            <mxRectangle width="60" height="40" as="alternateBounds" />
          </mxGeometry>
        </mxCell>
        <mxCell id="h90DpESBa_Lf4_8nsp0X-6" value="a5" style="shape=partialRectangle;html=1;whiteSpace=wrap;connectable=0;overflow=hidden;fillColor=#e1d5e7;top=0;left=0;bottom=0;right=0;pointerEvents=1;strokeColor=#9673a6;" vertex="1" parent="h90DpESBa_Lf4_8nsp0X-3">
          <mxGeometry x="120" width="60" height="40" as="geometry">
            <mxRectangle width="60" height="40" as="alternateBounds" />
          </mxGeometry>
        </mxCell>
        <mxCell id="h90DpESBa_Lf4_8nsp0X-7" value="a4" style="shape=partialRectangle;html=1;whiteSpace=wrap;connectable=0;overflow=hidden;fillColor=#ffe6cc;top=0;left=0;bottom=0;right=0;pointerEvents=1;strokeColor=#d79b00;" vertex="1" parent="h90DpESBa_Lf4_8nsp0X-3">
          <mxGeometry x="180" width="60" height="40" as="geometry">
            <mxRectangle width="60" height="40" as="alternateBounds" />
          </mxGeometry>
        </mxCell>
        <mxCell id="h90DpESBa_Lf4_8nsp0X-8" value="a3" style="shape=partialRectangle;html=1;whiteSpace=wrap;connectable=0;overflow=hidden;fillColor=#e1d5e7;top=0;left=0;bottom=0;right=0;pointerEvents=1;strokeColor=#9673a6;" vertex="1" parent="h90DpESBa_Lf4_8nsp0X-3">
          <mxGeometry x="240" width="60" height="40" as="geometry">
            <mxRectangle width="60" height="40" as="alternateBounds" />
          </mxGeometry>
        </mxCell>
        <mxCell id="h90DpESBa_Lf4_8nsp0X-9" value="a2" style="shape=partialRectangle;html=1;whiteSpace=wrap;connectable=0;overflow=hidden;fillColor=#ffe6cc;top=0;left=0;bottom=0;right=0;pointerEvents=1;strokeColor=#d79b00;" vertex="1" parent="h90DpESBa_Lf4_8nsp0X-3">
          <mxGeometry x="300" width="60" height="40" as="geometry">
            <mxRectangle width="60" height="40" as="alternateBounds" />
          </mxGeometry>
        </mxCell>
        <mxCell id="h90DpESBa_Lf4_8nsp0X-10" value="a1" style="shape=partialRectangle;html=1;whiteSpace=wrap;connectable=0;overflow=hidden;fillColor=#e1d5e7;top=0;left=0;bottom=0;right=0;pointerEvents=1;strokeColor=#9673a6;" vertex="1" parent="h90DpESBa_Lf4_8nsp0X-3">
          <mxGeometry x="360" width="60" height="40" as="geometry">
            <mxRectangle width="60" height="40" as="alternateBounds" />
          </mxGeometry>
        </mxCell>
        <mxCell id="h90DpESBa_Lf4_8nsp0X-11" value="a0" style="shape=partialRectangle;html=1;whiteSpace=wrap;connectable=0;overflow=hidden;fillColor=#ffe6cc;top=0;left=0;bottom=0;right=0;pointerEvents=1;strokeColor=#d79b00;" vertex="1" parent="h90DpESBa_Lf4_8nsp0X-3">
          <mxGeometry x="420" width="60" height="40" as="geometry">
            <mxRectangle width="60" height="40" as="alternateBounds" />
          </mxGeometry>
        </mxCell>
        <mxCell id="h90DpESBa_Lf4_8nsp0X-12" value="" style="shape=table;startSize=0;container=1;collapsible=0;childLayout=tableLayout;fillColor=#ffe6cc;strokeColor=#d79b00;" vertex="1" parent="h90DpESBa_Lf4_8nsp0X-1">
          <mxGeometry x="160" y="280" width="480" height="40" as="geometry" />
        </mxCell>
        <mxCell id="h90DpESBa_Lf4_8nsp0X-13" value="" style="shape=tableRow;horizontal=0;startSize=0;swimlaneHead=0;swimlaneBody=0;top=0;left=0;bottom=0;right=0;collapsible=0;dropTarget=0;fillColor=#ffe6cc;points=[[0,0.5],[1,0.5]];portConstraint=eastwest;strokeColor=#d79b00;" vertex="1" parent="h90DpESBa_Lf4_8nsp0X-12">
          <mxGeometry width="480" height="40" as="geometry" />
        </mxCell>
        <mxCell id="h90DpESBa_Lf4_8nsp0X-14" value="b7" style="shape=partialRectangle;html=1;whiteSpace=wrap;connectable=0;overflow=hidden;fillColor=#e1d5e7;top=0;left=0;bottom=0;right=0;pointerEvents=1;strokeColor=#9673a6;" vertex="1" parent="h90DpESBa_Lf4_8nsp0X-13">
          <mxGeometry width="60" height="40" as="geometry">
            <mxRectangle width="60" height="40" as="alternateBounds" />
          </mxGeometry>
        </mxCell>
        <mxCell id="h90DpESBa_Lf4_8nsp0X-15" value="b6" style="shape=partialRectangle;html=1;whiteSpace=wrap;connectable=0;overflow=hidden;fillColor=#ffe6cc;top=0;left=0;bottom=0;right=0;pointerEvents=1;strokeColor=#d79b00;" vertex="1" parent="h90DpESBa_Lf4_8nsp0X-13">
          <mxGeometry x="60" width="60" height="40" as="geometry">
            <mxRectangle width="60" height="40" as="alternateBounds" />
          </mxGeometry>
        </mxCell>
        <mxCell id="h90DpESBa_Lf4_8nsp0X-16" value="b5" style="shape=partialRectangle;html=1;whiteSpace=wrap;connectable=0;overflow=hidden;fillColor=#e1d5e7;top=0;left=0;bottom=0;right=0;pointerEvents=1;strokeColor=#9673a6;" vertex="1" parent="h90DpESBa_Lf4_8nsp0X-13">
          <mxGeometry x="120" width="60" height="40" as="geometry">
            <mxRectangle width="60" height="40" as="alternateBounds" />
          </mxGeometry>
        </mxCell>
        <mxCell id="h90DpESBa_Lf4_8nsp0X-17" value="b4" style="shape=partialRectangle;html=1;whiteSpace=wrap;connectable=0;overflow=hidden;fillColor=#ffe6cc;top=0;left=0;bottom=0;right=0;pointerEvents=1;strokeColor=#d79b00;" vertex="1" parent="h90DpESBa_Lf4_8nsp0X-13">
          <mxGeometry x="180" width="60" height="40" as="geometry">
            <mxRectangle width="60" height="40" as="alternateBounds" />
          </mxGeometry>
        </mxCell>
        <mxCell id="h90DpESBa_Lf4_8nsp0X-18" value="b3" style="shape=partialRectangle;html=1;whiteSpace=wrap;connectable=0;overflow=hidden;fillColor=#e1d5e7;top=0;left=0;bottom=0;right=0;pointerEvents=1;strokeColor=#9673a6;" vertex="1" parent="h90DpESBa_Lf4_8nsp0X-13">
          <mxGeometry x="240" width="60" height="40" as="geometry">
            <mxRectangle width="60" height="40" as="alternateBounds" />
          </mxGeometry>
        </mxCell>
        <mxCell id="h90DpESBa_Lf4_8nsp0X-19" value="b2" style="shape=partialRectangle;html=1;whiteSpace=wrap;connectable=0;overflow=hidden;fillColor=#ffe6cc;top=0;left=0;bottom=0;right=0;pointerEvents=1;strokeColor=#d79b00;" vertex="1" parent="h90DpESBa_Lf4_8nsp0X-13">
          <mxGeometry x="300" width="60" height="40" as="geometry">
            <mxRectangle width="60" height="40" as="alternateBounds" />
          </mxGeometry>
        </mxCell>
        <mxCell id="h90DpESBa_Lf4_8nsp0X-20" value="b1" style="shape=partialRectangle;html=1;whiteSpace=wrap;connectable=0;overflow=hidden;fillColor=#e1d5e7;top=0;left=0;bottom=0;right=0;pointerEvents=1;strokeColor=#9673a6;" vertex="1" parent="h90DpESBa_Lf4_8nsp0X-13">
          <mxGeometry x="360" width="60" height="40" as="geometry">
            <mxRectangle width="60" height="40" as="alternateBounds" />
          </mxGeometry>
        </mxCell>
        <mxCell id="h90DpESBa_Lf4_8nsp0X-21" value="b0" style="shape=partialRectangle;html=1;whiteSpace=wrap;connectable=0;overflow=hidden;fillColor=#ffe6cc;top=0;left=0;bottom=0;right=0;pointerEvents=1;strokeColor=#d79b00;" vertex="1" parent="h90DpESBa_Lf4_8nsp0X-13">
          <mxGeometry x="420" width="60" height="40" as="geometry">
            <mxRectangle width="60" height="40" as="alternateBounds" />
          </mxGeometry>
        </mxCell>
        <mxCell id="h90DpESBa_Lf4_8nsp0X-22" value="__m256" style="text;html=1;strokeColor=#d79b00;fillColor=#ffe6cc;align=center;verticalAlign=middle;whiteSpace=wrap;rounded=0;" vertex="1" parent="h90DpESBa_Lf4_8nsp0X-1">
          <mxGeometry x="80" y="165" width="60" height="30" as="geometry" />
        </mxCell>
        <mxCell id="h90DpESBa_Lf4_8nsp0X-23" value="__m256" style="text;html=1;strokeColor=#d79b00;fillColor=#ffe6cc;align=center;verticalAlign=middle;whiteSpace=wrap;rounded=0;" vertex="1" parent="h90DpESBa_Lf4_8nsp0X-1">
          <mxGeometry x="80" y="285" width="60" height="30" as="geometry" />
        </mxCell>
        <mxCell id="h90DpESBa_Lf4_8nsp0X-24" value="" style="shape=table;startSize=0;container=1;collapsible=0;childLayout=tableLayout;fillColor=#ffe6cc;strokeColor=#d79b00;" vertex="1" parent="h90DpESBa_Lf4_8nsp0X-1">
          <mxGeometry x="160" y="400" width="480" height="40" as="geometry" />
        </mxCell>
        <mxCell id="h90DpESBa_Lf4_8nsp0X-25" value="" style="shape=tableRow;horizontal=0;startSize=0;swimlaneHead=0;swimlaneBody=0;top=0;left=0;bottom=0;right=0;collapsible=0;dropTarget=0;fillColor=#ffe6cc;points=[[0,0.5],[1,0.5]];portConstraint=eastwest;strokeColor=#d79b00;" vertex="1" parent="h90DpESBa_Lf4_8nsp0X-24">
          <mxGeometry width="480" height="40" as="geometry" />
        </mxCell>
        <mxCell id="h90DpESBa_Lf4_8nsp0X-26" value="c7" style="shape=partialRectangle;html=1;whiteSpace=wrap;connectable=0;overflow=hidden;fillColor=#e1d5e7;top=0;left=0;bottom=0;right=0;pointerEvents=1;strokeColor=#9673a6;" vertex="1" parent="h90DpESBa_Lf4_8nsp0X-25">
          <mxGeometry width="60" height="40" as="geometry">
            <mxRectangle width="60" height="40" as="alternateBounds" />
          </mxGeometry>
        </mxCell>
        <mxCell id="h90DpESBa_Lf4_8nsp0X-27" value="c6" style="shape=partialRectangle;html=1;whiteSpace=wrap;connectable=0;overflow=hidden;fillColor=#ffe6cc;top=0;left=0;bottom=0;right=0;pointerEvents=1;strokeColor=#d79b00;" vertex="1" parent="h90DpESBa_Lf4_8nsp0X-25">
          <mxGeometry x="60" width="60" height="40" as="geometry">
            <mxRectangle width="60" height="40" as="alternateBounds" />
          </mxGeometry>
        </mxCell>
        <mxCell id="h90DpESBa_Lf4_8nsp0X-28" value="c5" style="shape=partialRectangle;html=1;whiteSpace=wrap;connectable=0;overflow=hidden;fillColor=#e1d5e7;top=0;left=0;bottom=0;right=0;pointerEvents=1;strokeColor=#9673a6;" vertex="1" parent="h90DpESBa_Lf4_8nsp0X-25">
          <mxGeometry x="120" width="60" height="40" as="geometry">
            <mxRectangle width="60" height="40" as="alternateBounds" />
          </mxGeometry>
        </mxCell>
        <mxCell id="h90DpESBa_Lf4_8nsp0X-29" value="c4" style="shape=partialRectangle;html=1;whiteSpace=wrap;connectable=0;overflow=hidden;fillColor=#ffe6cc;top=0;left=0;bottom=0;right=0;pointerEvents=1;strokeColor=#d79b00;" vertex="1" parent="h90DpESBa_Lf4_8nsp0X-25">
          <mxGeometry x="180" width="60" height="40" as="geometry">
            <mxRectangle width="60" height="40" as="alternateBounds" />
          </mxGeometry>
        </mxCell>
        <mxCell id="h90DpESBa_Lf4_8nsp0X-30" value="c3" style="shape=partialRectangle;html=1;whiteSpace=wrap;connectable=0;overflow=hidden;fillColor=#e1d5e7;top=0;left=0;bottom=0;right=0;pointerEvents=1;strokeColor=#9673a6;" vertex="1" parent="h90DpESBa_Lf4_8nsp0X-25">
          <mxGeometry x="240" width="60" height="40" as="geometry">
            <mxRectangle width="60" height="40" as="alternateBounds" />
          </mxGeometry>
        </mxCell>
        <mxCell id="h90DpESBa_Lf4_8nsp0X-31" value="c2" style="shape=partialRectangle;html=1;whiteSpace=wrap;connectable=0;overflow=hidden;fillColor=#ffe6cc;top=0;left=0;bottom=0;right=0;pointerEvents=1;strokeColor=#d79b00;" vertex="1" parent="h90DpESBa_Lf4_8nsp0X-25">
          <mxGeometry x="300" width="60" height="40" as="geometry">
            <mxRectangle width="60" height="40" as="alternateBounds" />
          </mxGeometry>
        </mxCell>
        <mxCell id="h90DpESBa_Lf4_8nsp0X-32" value="c1" style="shape=partialRectangle;html=1;whiteSpace=wrap;connectable=0;overflow=hidden;fillColor=#e1d5e7;top=0;left=0;bottom=0;right=0;pointerEvents=1;strokeColor=#9673a6;" vertex="1" parent="h90DpESBa_Lf4_8nsp0X-25">
          <mxGeometry x="360" width="60" height="40" as="geometry">
            <mxRectangle width="60" height="40" as="alternateBounds" />
          </mxGeometry>
        </mxCell>
        <mxCell id="h90DpESBa_Lf4_8nsp0X-33" value="c0" style="shape=partialRectangle;html=1;whiteSpace=wrap;connectable=0;overflow=hidden;fillColor=#ffe6cc;top=0;left=0;bottom=0;right=0;pointerEvents=1;strokeColor=#d79b00;" vertex="1" parent="h90DpESBa_Lf4_8nsp0X-25">
          <mxGeometry x="420" width="60" height="40" as="geometry">
            <mxRectangle width="60" height="40" as="alternateBounds" />
          </mxGeometry>
        </mxCell>
        <mxCell id="h90DpESBa_Lf4_8nsp0X-34" value="__m256" style="text;html=1;strokeColor=#d79b00;fillColor=#ffe6cc;align=center;verticalAlign=middle;whiteSpace=wrap;rounded=0;" vertex="1" parent="h90DpESBa_Lf4_8nsp0X-1">
          <mxGeometry x="80" y="405" width="60" height="30" as="geometry" />
        </mxCell>
        <mxCell id="h90DpESBa_Lf4_8nsp0X-35" value="" style="shape=table;startSize=0;container=1;collapsible=0;childLayout=tableLayout;fillColor=#ffe6cc;strokeColor=#d79b00;" vertex="1" parent="h90DpESBa_Lf4_8nsp0X-1">
          <mxGeometry x="160" y="520" width="480" height="40" as="geometry" />
        </mxCell>
        <mxCell id="h90DpESBa_Lf4_8nsp0X-36" value="" style="shape=tableRow;horizontal=0;startSize=0;swimlaneHead=0;swimlaneBody=0;top=0;left=0;bottom=0;right=0;collapsible=0;dropTarget=0;fillColor=#ffe6cc;points=[[0,0.5],[1,0.5]];portConstraint=eastwest;strokeColor=#d79b00;" vertex="1" parent="h90DpESBa_Lf4_8nsp0X-35">
          <mxGeometry width="480" height="40" as="geometry" />
        </mxCell>
        <mxCell id="h90DpESBa_Lf4_8nsp0X-37" value="a7*b7+c7" style="shape=partialRectangle;html=1;whiteSpace=wrap;connectable=0;overflow=hidden;fillColor=#e1d5e7;top=0;left=0;bottom=0;right=0;pointerEvents=1;strokeColor=#9673a6;" vertex="1" parent="h90DpESBa_Lf4_8nsp0X-36">
          <mxGeometry width="60" height="40" as="geometry">
            <mxRectangle width="60" height="40" as="alternateBounds" />
          </mxGeometry>
        </mxCell>
        <mxCell id="h90DpESBa_Lf4_8nsp0X-38" value="a6*b6+c6" style="shape=partialRectangle;html=1;whiteSpace=wrap;connectable=0;overflow=hidden;fillColor=#ffe6cc;top=0;left=0;bottom=0;right=0;pointerEvents=1;strokeColor=#d79b00;" vertex="1" parent="h90DpESBa_Lf4_8nsp0X-36">
          <mxGeometry x="60" width="60" height="40" as="geometry">
            <mxRectangle width="60" height="40" as="alternateBounds" />
          </mxGeometry>
        </mxCell>
        <mxCell id="h90DpESBa_Lf4_8nsp0X-39" value="a5*b5-c5" style="shape=partialRectangle;html=1;whiteSpace=wrap;connectable=0;overflow=hidden;fillColor=#e1d5e7;top=0;left=0;bottom=0;right=0;pointerEvents=1;strokeColor=#9673a6;" vertex="1" parent="h90DpESBa_Lf4_8nsp0X-36">
          <mxGeometry x="120" width="60" height="40" as="geometry">
            <mxRectangle width="60" height="40" as="alternateBounds" />
          </mxGeometry>
        </mxCell>
        <mxCell id="h90DpESBa_Lf4_8nsp0X-40" value="a4*b4+c4" style="shape=partialRectangle;html=1;whiteSpace=wrap;connectable=0;overflow=hidden;fillColor=#ffe6cc;top=0;left=0;bottom=0;right=0;pointerEvents=1;strokeColor=#d79b00;" vertex="1" parent="h90DpESBa_Lf4_8nsp0X-36">
          <mxGeometry x="180" width="60" height="40" as="geometry">
            <mxRectangle width="60" height="40" as="alternateBounds" />
          </mxGeometry>
        </mxCell>
        <mxCell id="h90DpESBa_Lf4_8nsp0X-41" value="a3*b3-c3" style="shape=partialRectangle;html=1;whiteSpace=wrap;connectable=0;overflow=hidden;fillColor=#e1d5e7;top=0;left=0;bottom=0;right=0;pointerEvents=1;strokeColor=#9673a6;" vertex="1" parent="h90DpESBa_Lf4_8nsp0X-36">
          <mxGeometry x="240" width="60" height="40" as="geometry">
            <mxRectangle width="60" height="40" as="alternateBounds" />
          </mxGeometry>
        </mxCell>
        <mxCell id="h90DpESBa_Lf4_8nsp0X-42" value="a2*b2+c2" style="shape=partialRectangle;html=1;whiteSpace=wrap;connectable=0;overflow=hidden;fillColor=#ffe6cc;top=0;left=0;bottom=0;right=0;pointerEvents=1;strokeColor=#d79b00;" vertex="1" parent="h90DpESBa_Lf4_8nsp0X-36">
          <mxGeometry x="300" width="60" height="40" as="geometry">
            <mxRectangle width="60" height="40" as="alternateBounds" />
          </mxGeometry>
        </mxCell>
        <mxCell id="h90DpESBa_Lf4_8nsp0X-43" value="a1*b1-c1" style="shape=partialRectangle;html=1;whiteSpace=wrap;connectable=0;overflow=hidden;fillColor=#e1d5e7;top=0;left=0;bottom=0;right=0;pointerEvents=1;strokeColor=#9673a6;" vertex="1" parent="h90DpESBa_Lf4_8nsp0X-36">
          <mxGeometry x="360" width="60" height="40" as="geometry">
            <mxRectangle width="60" height="40" as="alternateBounds" />
          </mxGeometry>
        </mxCell>
        <mxCell id="h90DpESBa_Lf4_8nsp0X-44" value="a0*b0+c0" style="shape=partialRectangle;html=1;whiteSpace=wrap;connectable=0;overflow=hidden;fillColor=#ffe6cc;top=0;left=0;bottom=0;right=0;pointerEvents=1;strokeColor=#d79b00;" vertex="1" parent="h90DpESBa_Lf4_8nsp0X-36">
          <mxGeometry x="420" width="60" height="40" as="geometry">
            <mxRectangle width="60" height="40" as="alternateBounds" />
          </mxGeometry>
        </mxCell>
        <mxCell id="h90DpESBa_Lf4_8nsp0X-45" value="__m256" style="text;html=1;strokeColor=#d79b00;fillColor=#ffe6cc;align=center;verticalAlign=middle;whiteSpace=wrap;rounded=0;" vertex="1" parent="h90DpESBa_Lf4_8nsp0X-1">
          <mxGeometry x="80" y="525" width="60" height="30" as="geometry" />
        </mxCell>
        <mxCell id="h90DpESBa_Lf4_8nsp0X-46" value="" style="endArrow=none;html=1;rounded=0;entryX=0.123;entryY=-0.025;entryDx=0;entryDy=0;entryPerimeter=0;strokeColor=#d79b00;dashed=1;exitX=0.123;exitY=0.975;exitDx=0;exitDy=0;exitPerimeter=0;fillColor=#ffe6cc;" edge="1" parent="h90DpESBa_Lf4_8nsp0X-1" source="h90DpESBa_Lf4_8nsp0X-25" target="h90DpESBa_Lf4_8nsp0X-3">
          <mxGeometry width="50" height="50" relative="1" as="geometry">
            <mxPoint x="210" y="170" as="sourcePoint" />
            <mxPoint x="220" y="120" as="targetPoint" />
          </mxGeometry>
        </mxCell>
        <mxCell id="h90DpESBa_Lf4_8nsp0X-47" value="" style="endArrow=none;html=1;rounded=0;exitX=0.25;exitY=1;exitDx=0;exitDy=0;entryX=0.123;entryY=-0.025;entryDx=0;entryDy=0;entryPerimeter=0;strokeColor=#d79b00;dashed=1;startArrow=none;fillColor=#ffe6cc;" edge="1" parent="h90DpESBa_Lf4_8nsp0X-1" source="h90DpESBa_Lf4_8nsp0X-24">
          <mxGeometry width="50" height="50" relative="1" as="geometry">
            <mxPoint x="200" y="460" as="sourcePoint" />
            <mxPoint x="279.99999999999994" y="160" as="targetPoint" />
          </mxGeometry>
        </mxCell>
        <mxCell id="h90DpESBa_Lf4_8nsp0X-48" value="" style="endArrow=none;html=1;rounded=0;entryX=0.123;entryY=-0.025;entryDx=0;entryDy=0;entryPerimeter=0;strokeColor=#d79b00;dashed=1;fillColor=#ffe6cc;" edge="1" parent="h90DpESBa_Lf4_8nsp0X-1">
          <mxGeometry width="50" height="50" relative="1" as="geometry">
            <mxPoint x="340" y="440" as="sourcePoint" />
            <mxPoint x="339.99999999999994" y="160" as="targetPoint" />
          </mxGeometry>
        </mxCell>
        <mxCell id="h90DpESBa_Lf4_8nsp0X-49" value="" style="endArrow=none;html=1;rounded=0;entryX=0.123;entryY=-0.025;entryDx=0;entryDy=0;entryPerimeter=0;strokeColor=#d79b00;dashed=1;exitX=0.502;exitY=0.975;exitDx=0;exitDy=0;exitPerimeter=0;fillColor=#ffe6cc;" edge="1" parent="h90DpESBa_Lf4_8nsp0X-1" source="h90DpESBa_Lf4_8nsp0X-25">
          <mxGeometry width="50" height="50" relative="1" as="geometry">
            <mxPoint x="399.5" y="562" as="sourcePoint" />
            <mxPoint x="399.5" y="160" as="targetPoint" />
          </mxGeometry>
        </mxCell>
        <mxCell id="h90DpESBa_Lf4_8nsp0X-50" value="" style="endArrow=none;html=1;rounded=0;entryX=0.123;entryY=-0.025;entryDx=0;entryDy=0;entryPerimeter=0;strokeColor=#d79b00;dashed=1;fillColor=#ffe6cc;" edge="1" parent="h90DpESBa_Lf4_8nsp0X-1">
          <mxGeometry width="50" height="50" relative="1" as="geometry">
            <mxPoint x="460" y="440" as="sourcePoint" />
            <mxPoint x="460" y="160" as="targetPoint" />
          </mxGeometry>
        </mxCell>
        <mxCell id="h90DpESBa_Lf4_8nsp0X-51" value="" style="endArrow=none;html=1;rounded=0;exitX=0.75;exitY=1;exitDx=0;exitDy=0;entryX=0.123;entryY=-0.025;entryDx=0;entryDy=0;entryPerimeter=0;strokeColor=#d79b00;dashed=1;fillColor=#ffe6cc;" edge="1" parent="h90DpESBa_Lf4_8nsp0X-1" source="h90DpESBa_Lf4_8nsp0X-24">
          <mxGeometry width="50" height="50" relative="1" as="geometry">
            <mxPoint x="520" y="562" as="sourcePoint" />
            <mxPoint x="520" y="160" as="targetPoint" />
          </mxGeometry>
        </mxCell>
        <mxCell id="h90DpESBa_Lf4_8nsp0X-52" value="" style="endArrow=none;html=1;rounded=0;entryX=0.123;entryY=-0.025;entryDx=0;entryDy=0;entryPerimeter=0;strokeColor=#d79b00;dashed=1;fillColor=#ffe6cc;" edge="1" parent="h90DpESBa_Lf4_8nsp0X-1">
          <mxGeometry width="50" height="50" relative="1" as="geometry">
            <mxPoint x="580" y="440" as="sourcePoint" />
            <mxPoint x="580" y="158" as="targetPoint" />
          </mxGeometry>
        </mxCell>
        <mxCell id="h90DpESBa_Lf4_8nsp0X-53" value="&lt;font style=&quot;font-size: 18px&quot;&gt;*&lt;/font&gt;" style="text;html=1;align=center;verticalAlign=middle;resizable=0;points=[];autosize=1;strokeColor=#6c8ebf;fillColor=#dae8fc;" vertex="1" parent="h90DpESBa_Lf4_8nsp0X-1">
          <mxGeometry x="180" y="230" width="20" height="20" as="geometry" />
        </mxCell>
        <mxCell id="h90DpESBa_Lf4_8nsp0X-54" value="&lt;font style=&quot;font-size: 18px&quot;&gt;*&lt;/font&gt;" style="text;html=1;align=center;verticalAlign=middle;resizable=0;points=[];autosize=1;strokeColor=#6c8ebf;fillColor=#dae8fc;" vertex="1" parent="h90DpESBa_Lf4_8nsp0X-1">
          <mxGeometry x="240" y="230" width="20" height="20" as="geometry" />
        </mxCell>
        <mxCell id="h90DpESBa_Lf4_8nsp0X-55" value="&lt;font style=&quot;font-size: 18px&quot;&gt;*&lt;/font&gt;" style="text;html=1;align=center;verticalAlign=middle;resizable=0;points=[];autosize=1;strokeColor=#6c8ebf;fillColor=#dae8fc;" vertex="1" parent="h90DpESBa_Lf4_8nsp0X-1">
          <mxGeometry x="300" y="230" width="20" height="20" as="geometry" />
        </mxCell>
        <mxCell id="h90DpESBa_Lf4_8nsp0X-56" value="&lt;font style=&quot;font-size: 18px&quot;&gt;*&lt;/font&gt;" style="text;html=1;align=center;verticalAlign=middle;resizable=0;points=[];autosize=1;strokeColor=#6c8ebf;fillColor=#dae8fc;" vertex="1" parent="h90DpESBa_Lf4_8nsp0X-1">
          <mxGeometry x="360" y="230" width="20" height="20" as="geometry" />
        </mxCell>
        <mxCell id="h90DpESBa_Lf4_8nsp0X-57" value="&lt;font style=&quot;font-size: 18px&quot;&gt;*&lt;/font&gt;" style="text;html=1;align=center;verticalAlign=middle;resizable=0;points=[];autosize=1;strokeColor=#6c8ebf;fillColor=#dae8fc;" vertex="1" parent="h90DpESBa_Lf4_8nsp0X-1">
          <mxGeometry x="420" y="230" width="20" height="20" as="geometry" />
        </mxCell>
        <mxCell id="h90DpESBa_Lf4_8nsp0X-58" value="&lt;font style=&quot;font-size: 18px&quot;&gt;*&lt;/font&gt;" style="text;html=1;align=center;verticalAlign=middle;resizable=0;points=[];autosize=1;strokeColor=#6c8ebf;fillColor=#dae8fc;" vertex="1" parent="h90DpESBa_Lf4_8nsp0X-1">
          <mxGeometry x="480" y="230" width="20" height="20" as="geometry" />
        </mxCell>
        <mxCell id="h90DpESBa_Lf4_8nsp0X-59" value="&lt;font style=&quot;font-size: 18px&quot;&gt;*&lt;/font&gt;" style="text;html=1;align=center;verticalAlign=middle;resizable=0;points=[];autosize=1;strokeColor=#6c8ebf;fillColor=#dae8fc;" vertex="1" parent="h90DpESBa_Lf4_8nsp0X-1">
          <mxGeometry x="540" y="230" width="20" height="20" as="geometry" />
        </mxCell>
        <mxCell id="h90DpESBa_Lf4_8nsp0X-60" value="&lt;font style=&quot;font-size: 18px&quot;&gt;*&lt;/font&gt;" style="text;html=1;align=center;verticalAlign=middle;resizable=0;points=[];autosize=1;strokeColor=#6c8ebf;fillColor=#dae8fc;" vertex="1" parent="h90DpESBa_Lf4_8nsp0X-1">
          <mxGeometry x="600" y="230" width="20" height="20" as="geometry" />
        </mxCell>
        <mxCell id="h90DpESBa_Lf4_8nsp0X-61" value="&lt;font style=&quot;font-size: 18px&quot;&gt;+&lt;/font&gt;" style="text;html=1;align=center;verticalAlign=middle;resizable=0;points=[];autosize=1;strokeColor=#6c8ebf;fillColor=#dae8fc;" vertex="1" parent="h90DpESBa_Lf4_8nsp0X-1">
          <mxGeometry x="595" y="350" width="30" height="20" as="geometry" />
        </mxCell>
        <mxCell id="h90DpESBa_Lf4_8nsp0X-62" value="&lt;font style=&quot;font-size: 18px&quot;&gt;+&lt;/font&gt;" style="text;html=1;align=center;verticalAlign=middle;resizable=0;points=[];autosize=1;strokeColor=#6c8ebf;fillColor=#dae8fc;" vertex="1" parent="h90DpESBa_Lf4_8nsp0X-1">
          <mxGeometry x="475" y="350" width="30" height="20" as="geometry" />
        </mxCell>
        <mxCell id="h90DpESBa_Lf4_8nsp0X-63" value="&lt;font style=&quot;font-size: 18px&quot;&gt;+&lt;/font&gt;" style="text;html=1;align=center;verticalAlign=middle;resizable=0;points=[];autosize=1;strokeColor=#6c8ebf;fillColor=#dae8fc;" vertex="1" parent="h90DpESBa_Lf4_8nsp0X-1">
          <mxGeometry x="355" y="350" width="30" height="20" as="geometry" />
        </mxCell>
        <mxCell id="h90DpESBa_Lf4_8nsp0X-64" value="&lt;font style=&quot;font-size: 18px&quot;&gt;+&lt;/font&gt;" style="text;html=1;align=center;verticalAlign=middle;resizable=0;points=[];autosize=1;strokeColor=#6c8ebf;fillColor=#dae8fc;" vertex="1" parent="h90DpESBa_Lf4_8nsp0X-1">
          <mxGeometry x="235" y="350" width="30" height="20" as="geometry" />
        </mxCell>
        <mxCell id="h90DpESBa_Lf4_8nsp0X-65" value="&lt;font style=&quot;font-size: 18px&quot;&gt;-&lt;/font&gt;" style="text;html=1;align=center;verticalAlign=middle;resizable=0;points=[];autosize=1;strokeColor=#6c8ebf;fillColor=#dae8fc;" vertex="1" parent="h90DpESBa_Lf4_8nsp0X-1">
          <mxGeometry x="180" y="350" width="20" height="20" as="geometry" />
        </mxCell>
        <mxCell id="h90DpESBa_Lf4_8nsp0X-66" value="&lt;font style=&quot;font-size: 18px&quot;&gt;-&lt;/font&gt;" style="text;html=1;align=center;verticalAlign=middle;resizable=0;points=[];autosize=1;strokeColor=#6c8ebf;fillColor=#dae8fc;" vertex="1" parent="h90DpESBa_Lf4_8nsp0X-1">
          <mxGeometry x="300" y="350" width="20" height="20" as="geometry" />
        </mxCell>
        <mxCell id="h90DpESBa_Lf4_8nsp0X-67" value="&lt;font style=&quot;font-size: 18px&quot;&gt;-&lt;/font&gt;" style="text;html=1;align=center;verticalAlign=middle;resizable=0;points=[];autosize=1;strokeColor=#6c8ebf;fillColor=#dae8fc;" vertex="1" parent="h90DpESBa_Lf4_8nsp0X-1">
          <mxGeometry x="420" y="350" width="20" height="20" as="geometry" />
        </mxCell>
        <mxCell id="h90DpESBa_Lf4_8nsp0X-68" value="&lt;font style=&quot;font-size: 18px&quot;&gt;-&lt;/font&gt;" style="text;html=1;align=center;verticalAlign=middle;resizable=0;points=[];autosize=1;strokeColor=#6c8ebf;fillColor=#dae8fc;" vertex="1" parent="h90DpESBa_Lf4_8nsp0X-1">
          <mxGeometry x="540" y="350" width="20" height="20" as="geometry" />
        </mxCell>
        <mxCell id="h90DpESBa_Lf4_8nsp0X-69" value="" style="rounded=0;whiteSpace=wrap;html=1;dashed=1;fontSize=18;strokeColor=#000000;fillColor=none;" vertex="1" parent="h90DpESBa_Lf4_8nsp0X-1">
          <mxGeometry x="40" y="490" width="640" height="90" as="geometry" />
        </mxCell>
        <mxCell id="h90DpESBa_Lf4_8nsp0X-70" value="" style="rounded=0;whiteSpace=wrap;html=1;dashed=1;fontSize=18;strokeColor=#000000;fillColor=none;" vertex="1" parent="h90DpESBa_Lf4_8nsp0X-1">
          <mxGeometry x="40" y="90" width="640" height="380" as="geometry" />
        </mxCell>
        <mxCell id="h90DpESBa_Lf4_8nsp0X-71" value="&lt;i&gt;__mm256_fmsubadd_ps(m1, m2, m3)&lt;/i&gt;" style="text;html=1;strokeColor=#d79b00;fillColor=none;align=center;verticalAlign=middle;whiteSpace=wrap;rounded=0;dashed=1;fontSize=18;" vertex="1" parent="h90DpESBa_Lf4_8nsp0X-1">
          <mxGeometry x="200" y="110" width="320" height="30" as="geometry" />
        </mxCell>
      </root>
    </mxGraphModel>
  </diagram>
  <diagram name="fnmadd" id="P4pQ_F6H8q6TJX2ZeaWg">
    <mxGraphModel dx="1422" dy="754" grid="1" gridSize="10" guides="1" tooltips="1" connect="1" arrows="1" fold="1" page="1" pageScale="1" pageWidth="827" pageHeight="1169" math="0" shadow="0">
      <root>
        <mxCell id="Ad3nmbv3oK-rRAc0MzFZ-0" />
        <mxCell id="Ad3nmbv3oK-rRAc0MzFZ-1" parent="Ad3nmbv3oK-rRAc0MzFZ-0" />
        <mxCell id="Ad3nmbv3oK-rRAc0MzFZ-2" value="" style="shape=table;startSize=0;container=1;collapsible=0;childLayout=tableLayout;fillColor=#dae8fc;strokeColor=#6c8ebf;" vertex="1" parent="Ad3nmbv3oK-rRAc0MzFZ-1">
          <mxGeometry x="160" y="160" width="480" height="40" as="geometry" />
        </mxCell>
        <mxCell id="Ad3nmbv3oK-rRAc0MzFZ-3" value="" style="shape=tableRow;horizontal=0;startSize=0;swimlaneHead=0;swimlaneBody=0;top=0;left=0;bottom=0;right=0;collapsible=0;dropTarget=0;fillColor=#dae8fc;points=[[0,0.5],[1,0.5]];portConstraint=eastwest;strokeColor=#6c8ebf;" vertex="1" parent="Ad3nmbv3oK-rRAc0MzFZ-2">
          <mxGeometry width="480" height="40" as="geometry" />
        </mxCell>
        <mxCell id="Ad3nmbv3oK-rRAc0MzFZ-4" value="a7" style="shape=partialRectangle;html=1;whiteSpace=wrap;connectable=0;overflow=hidden;fillColor=#dae8fc;top=0;left=0;bottom=0;right=0;pointerEvents=1;strokeColor=#6c8ebf;" vertex="1" parent="Ad3nmbv3oK-rRAc0MzFZ-3">
          <mxGeometry width="60" height="40" as="geometry">
            <mxRectangle width="60" height="40" as="alternateBounds" />
          </mxGeometry>
        </mxCell>
        <mxCell id="Ad3nmbv3oK-rRAc0MzFZ-5" value="a6" style="shape=partialRectangle;html=1;whiteSpace=wrap;connectable=0;overflow=hidden;fillColor=#dae8fc;top=0;left=0;bottom=0;right=0;pointerEvents=1;strokeColor=#6c8ebf;" vertex="1" parent="Ad3nmbv3oK-rRAc0MzFZ-3">
          <mxGeometry x="60" width="60" height="40" as="geometry">
            <mxRectangle width="60" height="40" as="alternateBounds" />
          </mxGeometry>
        </mxCell>
        <mxCell id="Ad3nmbv3oK-rRAc0MzFZ-6" value="a5" style="shape=partialRectangle;html=1;whiteSpace=wrap;connectable=0;overflow=hidden;fillColor=#dae8fc;top=0;left=0;bottom=0;right=0;pointerEvents=1;strokeColor=#6c8ebf;" vertex="1" parent="Ad3nmbv3oK-rRAc0MzFZ-3">
          <mxGeometry x="120" width="60" height="40" as="geometry">
            <mxRectangle width="60" height="40" as="alternateBounds" />
          </mxGeometry>
        </mxCell>
        <mxCell id="Ad3nmbv3oK-rRAc0MzFZ-7" value="a4" style="shape=partialRectangle;html=1;whiteSpace=wrap;connectable=0;overflow=hidden;fillColor=#dae8fc;top=0;left=0;bottom=0;right=0;pointerEvents=1;strokeColor=#6c8ebf;" vertex="1" parent="Ad3nmbv3oK-rRAc0MzFZ-3">
          <mxGeometry x="180" width="60" height="40" as="geometry">
            <mxRectangle width="60" height="40" as="alternateBounds" />
          </mxGeometry>
        </mxCell>
        <mxCell id="Ad3nmbv3oK-rRAc0MzFZ-8" value="a3" style="shape=partialRectangle;html=1;whiteSpace=wrap;connectable=0;overflow=hidden;fillColor=#dae8fc;top=0;left=0;bottom=0;right=0;pointerEvents=1;strokeColor=#6c8ebf;" vertex="1" parent="Ad3nmbv3oK-rRAc0MzFZ-3">
          <mxGeometry x="240" width="60" height="40" as="geometry">
            <mxRectangle width="60" height="40" as="alternateBounds" />
          </mxGeometry>
        </mxCell>
        <mxCell id="Ad3nmbv3oK-rRAc0MzFZ-9" value="a2" style="shape=partialRectangle;html=1;whiteSpace=wrap;connectable=0;overflow=hidden;fillColor=#dae8fc;top=0;left=0;bottom=0;right=0;pointerEvents=1;strokeColor=#6c8ebf;" vertex="1" parent="Ad3nmbv3oK-rRAc0MzFZ-3">
          <mxGeometry x="300" width="60" height="40" as="geometry">
            <mxRectangle width="60" height="40" as="alternateBounds" />
          </mxGeometry>
        </mxCell>
        <mxCell id="Ad3nmbv3oK-rRAc0MzFZ-10" value="a1" style="shape=partialRectangle;html=1;whiteSpace=wrap;connectable=0;overflow=hidden;fillColor=#dae8fc;top=0;left=0;bottom=0;right=0;pointerEvents=1;strokeColor=#6c8ebf;" vertex="1" parent="Ad3nmbv3oK-rRAc0MzFZ-3">
          <mxGeometry x="360" width="60" height="40" as="geometry">
            <mxRectangle width="60" height="40" as="alternateBounds" />
          </mxGeometry>
        </mxCell>
        <mxCell id="Ad3nmbv3oK-rRAc0MzFZ-11" value="a0" style="shape=partialRectangle;html=1;whiteSpace=wrap;connectable=0;overflow=hidden;fillColor=#dae8fc;top=0;left=0;bottom=0;right=0;pointerEvents=1;strokeColor=#6c8ebf;" vertex="1" parent="Ad3nmbv3oK-rRAc0MzFZ-3">
          <mxGeometry x="420" width="60" height="40" as="geometry">
            <mxRectangle width="60" height="40" as="alternateBounds" />
          </mxGeometry>
        </mxCell>
        <mxCell id="Ad3nmbv3oK-rRAc0MzFZ-12" value="" style="shape=table;startSize=0;container=1;collapsible=0;childLayout=tableLayout;fillColor=#dae8fc;strokeColor=#6c8ebf;" vertex="1" parent="Ad3nmbv3oK-rRAc0MzFZ-1">
          <mxGeometry x="160" y="280" width="480" height="40" as="geometry" />
        </mxCell>
        <mxCell id="Ad3nmbv3oK-rRAc0MzFZ-13" value="" style="shape=tableRow;horizontal=0;startSize=0;swimlaneHead=0;swimlaneBody=0;top=0;left=0;bottom=0;right=0;collapsible=0;dropTarget=0;fillColor=#dae8fc;points=[[0,0.5],[1,0.5]];portConstraint=eastwest;strokeColor=#6c8ebf;" vertex="1" parent="Ad3nmbv3oK-rRAc0MzFZ-12">
          <mxGeometry width="480" height="40" as="geometry" />
        </mxCell>
        <mxCell id="Ad3nmbv3oK-rRAc0MzFZ-14" value="b7" style="shape=partialRectangle;html=1;whiteSpace=wrap;connectable=0;overflow=hidden;fillColor=#dae8fc;top=0;left=0;bottom=0;right=0;pointerEvents=1;strokeColor=#6c8ebf;" vertex="1" parent="Ad3nmbv3oK-rRAc0MzFZ-13">
          <mxGeometry width="60" height="40" as="geometry">
            <mxRectangle width="60" height="40" as="alternateBounds" />
          </mxGeometry>
        </mxCell>
        <mxCell id="Ad3nmbv3oK-rRAc0MzFZ-15" value="b6" style="shape=partialRectangle;html=1;whiteSpace=wrap;connectable=0;overflow=hidden;fillColor=#dae8fc;top=0;left=0;bottom=0;right=0;pointerEvents=1;strokeColor=#6c8ebf;" vertex="1" parent="Ad3nmbv3oK-rRAc0MzFZ-13">
          <mxGeometry x="60" width="60" height="40" as="geometry">
            <mxRectangle width="60" height="40" as="alternateBounds" />
          </mxGeometry>
        </mxCell>
        <mxCell id="Ad3nmbv3oK-rRAc0MzFZ-16" value="b5" style="shape=partialRectangle;html=1;whiteSpace=wrap;connectable=0;overflow=hidden;fillColor=#dae8fc;top=0;left=0;bottom=0;right=0;pointerEvents=1;strokeColor=#6c8ebf;" vertex="1" parent="Ad3nmbv3oK-rRAc0MzFZ-13">
          <mxGeometry x="120" width="60" height="40" as="geometry">
            <mxRectangle width="60" height="40" as="alternateBounds" />
          </mxGeometry>
        </mxCell>
        <mxCell id="Ad3nmbv3oK-rRAc0MzFZ-17" value="b4" style="shape=partialRectangle;html=1;whiteSpace=wrap;connectable=0;overflow=hidden;fillColor=#dae8fc;top=0;left=0;bottom=0;right=0;pointerEvents=1;strokeColor=#6c8ebf;" vertex="1" parent="Ad3nmbv3oK-rRAc0MzFZ-13">
          <mxGeometry x="180" width="60" height="40" as="geometry">
            <mxRectangle width="60" height="40" as="alternateBounds" />
          </mxGeometry>
        </mxCell>
        <mxCell id="Ad3nmbv3oK-rRAc0MzFZ-18" value="b3" style="shape=partialRectangle;html=1;whiteSpace=wrap;connectable=0;overflow=hidden;fillColor=#dae8fc;top=0;left=0;bottom=0;right=0;pointerEvents=1;strokeColor=#6c8ebf;" vertex="1" parent="Ad3nmbv3oK-rRAc0MzFZ-13">
          <mxGeometry x="240" width="60" height="40" as="geometry">
            <mxRectangle width="60" height="40" as="alternateBounds" />
          </mxGeometry>
        </mxCell>
        <mxCell id="Ad3nmbv3oK-rRAc0MzFZ-19" value="b2" style="shape=partialRectangle;html=1;whiteSpace=wrap;connectable=0;overflow=hidden;fillColor=#dae8fc;top=0;left=0;bottom=0;right=0;pointerEvents=1;strokeColor=#6c8ebf;" vertex="1" parent="Ad3nmbv3oK-rRAc0MzFZ-13">
          <mxGeometry x="300" width="60" height="40" as="geometry">
            <mxRectangle width="60" height="40" as="alternateBounds" />
          </mxGeometry>
        </mxCell>
        <mxCell id="Ad3nmbv3oK-rRAc0MzFZ-20" value="b1" style="shape=partialRectangle;html=1;whiteSpace=wrap;connectable=0;overflow=hidden;fillColor=#dae8fc;top=0;left=0;bottom=0;right=0;pointerEvents=1;strokeColor=#6c8ebf;" vertex="1" parent="Ad3nmbv3oK-rRAc0MzFZ-13">
          <mxGeometry x="360" width="60" height="40" as="geometry">
            <mxRectangle width="60" height="40" as="alternateBounds" />
          </mxGeometry>
        </mxCell>
        <mxCell id="Ad3nmbv3oK-rRAc0MzFZ-21" value="b0" style="shape=partialRectangle;html=1;whiteSpace=wrap;connectable=0;overflow=hidden;fillColor=#dae8fc;top=0;left=0;bottom=0;right=0;pointerEvents=1;strokeColor=#6c8ebf;" vertex="1" parent="Ad3nmbv3oK-rRAc0MzFZ-13">
          <mxGeometry x="420" width="60" height="40" as="geometry">
            <mxRectangle width="60" height="40" as="alternateBounds" />
          </mxGeometry>
        </mxCell>
        <mxCell id="Ad3nmbv3oK-rRAc0MzFZ-22" value="__m256" style="text;html=1;strokeColor=#6c8ebf;fillColor=none;align=center;verticalAlign=middle;whiteSpace=wrap;rounded=0;" vertex="1" parent="Ad3nmbv3oK-rRAc0MzFZ-1">
          <mxGeometry x="80" y="165" width="60" height="30" as="geometry" />
        </mxCell>
        <mxCell id="Ad3nmbv3oK-rRAc0MzFZ-23" value="__m256" style="text;html=1;strokeColor=#6c8ebf;fillColor=none;align=center;verticalAlign=middle;whiteSpace=wrap;rounded=0;" vertex="1" parent="Ad3nmbv3oK-rRAc0MzFZ-1">
          <mxGeometry x="80" y="285" width="60" height="30" as="geometry" />
        </mxCell>
        <mxCell id="Ad3nmbv3oK-rRAc0MzFZ-24" value="" style="shape=table;startSize=0;container=1;collapsible=0;childLayout=tableLayout;fillColor=#dae8fc;strokeColor=#6c8ebf;" vertex="1" parent="Ad3nmbv3oK-rRAc0MzFZ-1">
          <mxGeometry x="160" y="400" width="480" height="40" as="geometry" />
        </mxCell>
        <mxCell id="Ad3nmbv3oK-rRAc0MzFZ-25" value="" style="shape=tableRow;horizontal=0;startSize=0;swimlaneHead=0;swimlaneBody=0;top=0;left=0;bottom=0;right=0;collapsible=0;dropTarget=0;fillColor=#dae8fc;points=[[0,0.5],[1,0.5]];portConstraint=eastwest;strokeColor=#6c8ebf;" vertex="1" parent="Ad3nmbv3oK-rRAc0MzFZ-24">
          <mxGeometry width="480" height="40" as="geometry" />
        </mxCell>
        <mxCell id="Ad3nmbv3oK-rRAc0MzFZ-26" value="c7" style="shape=partialRectangle;html=1;whiteSpace=wrap;connectable=0;overflow=hidden;fillColor=#dae8fc;top=0;left=0;bottom=0;right=0;pointerEvents=1;strokeColor=#6c8ebf;" vertex="1" parent="Ad3nmbv3oK-rRAc0MzFZ-25">
          <mxGeometry width="60" height="40" as="geometry">
            <mxRectangle width="60" height="40" as="alternateBounds" />
          </mxGeometry>
        </mxCell>
        <mxCell id="Ad3nmbv3oK-rRAc0MzFZ-27" value="c6" style="shape=partialRectangle;html=1;whiteSpace=wrap;connectable=0;overflow=hidden;fillColor=#dae8fc;top=0;left=0;bottom=0;right=0;pointerEvents=1;strokeColor=#6c8ebf;" vertex="1" parent="Ad3nmbv3oK-rRAc0MzFZ-25">
          <mxGeometry x="60" width="60" height="40" as="geometry">
            <mxRectangle width="60" height="40" as="alternateBounds" />
          </mxGeometry>
        </mxCell>
        <mxCell id="Ad3nmbv3oK-rRAc0MzFZ-28" value="c5" style="shape=partialRectangle;html=1;whiteSpace=wrap;connectable=0;overflow=hidden;fillColor=#dae8fc;top=0;left=0;bottom=0;right=0;pointerEvents=1;strokeColor=#6c8ebf;" vertex="1" parent="Ad3nmbv3oK-rRAc0MzFZ-25">
          <mxGeometry x="120" width="60" height="40" as="geometry">
            <mxRectangle width="60" height="40" as="alternateBounds" />
          </mxGeometry>
        </mxCell>
        <mxCell id="Ad3nmbv3oK-rRAc0MzFZ-29" value="c4" style="shape=partialRectangle;html=1;whiteSpace=wrap;connectable=0;overflow=hidden;fillColor=#dae8fc;top=0;left=0;bottom=0;right=0;pointerEvents=1;strokeColor=#6c8ebf;" vertex="1" parent="Ad3nmbv3oK-rRAc0MzFZ-25">
          <mxGeometry x="180" width="60" height="40" as="geometry">
            <mxRectangle width="60" height="40" as="alternateBounds" />
          </mxGeometry>
        </mxCell>
        <mxCell id="Ad3nmbv3oK-rRAc0MzFZ-30" value="c3" style="shape=partialRectangle;html=1;whiteSpace=wrap;connectable=0;overflow=hidden;fillColor=#dae8fc;top=0;left=0;bottom=0;right=0;pointerEvents=1;strokeColor=#6c8ebf;" vertex="1" parent="Ad3nmbv3oK-rRAc0MzFZ-25">
          <mxGeometry x="240" width="60" height="40" as="geometry">
            <mxRectangle width="60" height="40" as="alternateBounds" />
          </mxGeometry>
        </mxCell>
        <mxCell id="Ad3nmbv3oK-rRAc0MzFZ-31" value="c2" style="shape=partialRectangle;html=1;whiteSpace=wrap;connectable=0;overflow=hidden;fillColor=#dae8fc;top=0;left=0;bottom=0;right=0;pointerEvents=1;strokeColor=#6c8ebf;" vertex="1" parent="Ad3nmbv3oK-rRAc0MzFZ-25">
          <mxGeometry x="300" width="60" height="40" as="geometry">
            <mxRectangle width="60" height="40" as="alternateBounds" />
          </mxGeometry>
        </mxCell>
        <mxCell id="Ad3nmbv3oK-rRAc0MzFZ-32" value="c1" style="shape=partialRectangle;html=1;whiteSpace=wrap;connectable=0;overflow=hidden;fillColor=#dae8fc;top=0;left=0;bottom=0;right=0;pointerEvents=1;strokeColor=#6c8ebf;" vertex="1" parent="Ad3nmbv3oK-rRAc0MzFZ-25">
          <mxGeometry x="360" width="60" height="40" as="geometry">
            <mxRectangle width="60" height="40" as="alternateBounds" />
          </mxGeometry>
        </mxCell>
        <mxCell id="Ad3nmbv3oK-rRAc0MzFZ-33" value="c0" style="shape=partialRectangle;html=1;whiteSpace=wrap;connectable=0;overflow=hidden;fillColor=#dae8fc;top=0;left=0;bottom=0;right=0;pointerEvents=1;strokeColor=#6c8ebf;" vertex="1" parent="Ad3nmbv3oK-rRAc0MzFZ-25">
          <mxGeometry x="420" width="60" height="40" as="geometry">
            <mxRectangle width="60" height="40" as="alternateBounds" />
          </mxGeometry>
        </mxCell>
        <mxCell id="Ad3nmbv3oK-rRAc0MzFZ-34" value="__m256" style="text;html=1;strokeColor=#6c8ebf;fillColor=none;align=center;verticalAlign=middle;whiteSpace=wrap;rounded=0;" vertex="1" parent="Ad3nmbv3oK-rRAc0MzFZ-1">
          <mxGeometry x="80" y="405" width="60" height="30" as="geometry" />
        </mxCell>
        <mxCell id="Ad3nmbv3oK-rRAc0MzFZ-35" value="" style="shape=table;startSize=0;container=1;collapsible=0;childLayout=tableLayout;fillColor=#dae8fc;strokeColor=#6c8ebf;" vertex="1" parent="Ad3nmbv3oK-rRAc0MzFZ-1">
          <mxGeometry x="160" y="520" width="480" height="40" as="geometry" />
        </mxCell>
        <mxCell id="Ad3nmbv3oK-rRAc0MzFZ-36" value="" style="shape=tableRow;horizontal=0;startSize=0;swimlaneHead=0;swimlaneBody=0;top=0;left=0;bottom=0;right=0;collapsible=0;dropTarget=0;fillColor=#dae8fc;points=[[0,0.5],[1,0.5]];portConstraint=eastwest;strokeColor=#6c8ebf;" vertex="1" parent="Ad3nmbv3oK-rRAc0MzFZ-35">
          <mxGeometry width="480" height="40" as="geometry" />
        </mxCell>
        <mxCell id="Ad3nmbv3oK-rRAc0MzFZ-37" value="-(a7*b7)&lt;br&gt;+c7" style="shape=partialRectangle;html=1;whiteSpace=wrap;connectable=0;overflow=hidden;fillColor=#dae8fc;top=0;left=0;bottom=0;right=0;pointerEvents=1;strokeColor=#6c8ebf;" vertex="1" parent="Ad3nmbv3oK-rRAc0MzFZ-36">
          <mxGeometry width="60" height="40" as="geometry">
            <mxRectangle width="60" height="40" as="alternateBounds" />
          </mxGeometry>
        </mxCell>
        <mxCell id="Ad3nmbv3oK-rRAc0MzFZ-38" value="-(a6*b6)&lt;br&gt;+c6" style="shape=partialRectangle;html=1;whiteSpace=wrap;connectable=0;overflow=hidden;fillColor=#dae8fc;top=0;left=0;bottom=0;right=0;pointerEvents=1;strokeColor=#6c8ebf;" vertex="1" parent="Ad3nmbv3oK-rRAc0MzFZ-36">
          <mxGeometry x="60" width="60" height="40" as="geometry">
            <mxRectangle width="60" height="40" as="alternateBounds" />
          </mxGeometry>
        </mxCell>
        <mxCell id="Ad3nmbv3oK-rRAc0MzFZ-39" value="-(a5*b5)&lt;br&gt;+c5" style="shape=partialRectangle;html=1;whiteSpace=wrap;connectable=0;overflow=hidden;fillColor=#dae8fc;top=0;left=0;bottom=0;right=0;pointerEvents=1;strokeColor=#6c8ebf;" vertex="1" parent="Ad3nmbv3oK-rRAc0MzFZ-36">
          <mxGeometry x="120" width="60" height="40" as="geometry">
            <mxRectangle width="60" height="40" as="alternateBounds" />
          </mxGeometry>
        </mxCell>
        <mxCell id="Ad3nmbv3oK-rRAc0MzFZ-40" value="-(a4*b4)&lt;br&gt;+c4" style="shape=partialRectangle;html=1;whiteSpace=wrap;connectable=0;overflow=hidden;fillColor=#dae8fc;top=0;left=0;bottom=0;right=0;pointerEvents=1;strokeColor=#6c8ebf;" vertex="1" parent="Ad3nmbv3oK-rRAc0MzFZ-36">
          <mxGeometry x="180" width="60" height="40" as="geometry">
            <mxRectangle width="60" height="40" as="alternateBounds" />
          </mxGeometry>
        </mxCell>
        <mxCell id="Ad3nmbv3oK-rRAc0MzFZ-41" value="-(a3*b3)&lt;br&gt;+c3" style="shape=partialRectangle;html=1;whiteSpace=wrap;connectable=0;overflow=hidden;fillColor=#dae8fc;top=0;left=0;bottom=0;right=0;pointerEvents=1;strokeColor=#6c8ebf;" vertex="1" parent="Ad3nmbv3oK-rRAc0MzFZ-36">
          <mxGeometry x="240" width="60" height="40" as="geometry">
            <mxRectangle width="60" height="40" as="alternateBounds" />
          </mxGeometry>
        </mxCell>
        <mxCell id="Ad3nmbv3oK-rRAc0MzFZ-42" value="-(a2*b2)&lt;br&gt;+c2" style="shape=partialRectangle;html=1;whiteSpace=wrap;connectable=0;overflow=hidden;fillColor=#dae8fc;top=0;left=0;bottom=0;right=0;pointerEvents=1;strokeColor=#6c8ebf;" vertex="1" parent="Ad3nmbv3oK-rRAc0MzFZ-36">
          <mxGeometry x="300" width="60" height="40" as="geometry">
            <mxRectangle width="60" height="40" as="alternateBounds" />
          </mxGeometry>
        </mxCell>
        <mxCell id="Ad3nmbv3oK-rRAc0MzFZ-43" value="-(a1*b1)&lt;br&gt;+c1" style="shape=partialRectangle;html=1;whiteSpace=wrap;connectable=0;overflow=hidden;fillColor=#dae8fc;top=0;left=0;bottom=0;right=0;pointerEvents=1;strokeColor=#6c8ebf;" vertex="1" parent="Ad3nmbv3oK-rRAc0MzFZ-36">
          <mxGeometry x="360" width="60" height="40" as="geometry">
            <mxRectangle width="60" height="40" as="alternateBounds" />
          </mxGeometry>
        </mxCell>
        <mxCell id="Ad3nmbv3oK-rRAc0MzFZ-44" value="-(a0*b0)&lt;br&gt;+c0" style="shape=partialRectangle;html=1;whiteSpace=wrap;connectable=0;overflow=hidden;fillColor=#dae8fc;top=0;left=0;bottom=0;right=0;pointerEvents=1;strokeColor=#6c8ebf;" vertex="1" parent="Ad3nmbv3oK-rRAc0MzFZ-36">
          <mxGeometry x="420" width="60" height="40" as="geometry">
            <mxRectangle width="60" height="40" as="alternateBounds" />
          </mxGeometry>
        </mxCell>
        <mxCell id="Ad3nmbv3oK-rRAc0MzFZ-45" value="__m256" style="text;html=1;strokeColor=#6c8ebf;fillColor=none;align=center;verticalAlign=middle;whiteSpace=wrap;rounded=0;" vertex="1" parent="Ad3nmbv3oK-rRAc0MzFZ-1">
          <mxGeometry x="80" y="525" width="60" height="30" as="geometry" />
        </mxCell>
        <mxCell id="Ad3nmbv3oK-rRAc0MzFZ-53" value="&lt;font style=&quot;font-size: 18px&quot;&gt;*&lt;/font&gt;" style="text;html=1;align=center;verticalAlign=middle;resizable=0;points=[];autosize=1;strokeColor=#6c8ebf;fillColor=#dae8fc;" vertex="1" parent="Ad3nmbv3oK-rRAc0MzFZ-1">
          <mxGeometry x="390" y="230" width="20" height="20" as="geometry" />
        </mxCell>
        <mxCell id="Ad3nmbv3oK-rRAc0MzFZ-69" value="" style="rounded=0;whiteSpace=wrap;html=1;dashed=1;fontSize=18;strokeColor=#000000;fillColor=none;" vertex="1" parent="Ad3nmbv3oK-rRAc0MzFZ-1">
          <mxGeometry x="40" y="495" width="640" height="90" as="geometry" />
        </mxCell>
        <mxCell id="Ad3nmbv3oK-rRAc0MzFZ-70" value="" style="rounded=0;whiteSpace=wrap;html=1;dashed=1;fontSize=18;strokeColor=#000000;fillColor=none;" vertex="1" parent="Ad3nmbv3oK-rRAc0MzFZ-1">
          <mxGeometry x="40" y="90" width="640" height="380" as="geometry" />
        </mxCell>
        <mxCell id="Ad3nmbv3oK-rRAc0MzFZ-71" value="&lt;i&gt;__mm256_fnmadd_ps(m1, m2, m3)&lt;/i&gt;" style="text;html=1;strokeColor=none;fillColor=none;align=center;verticalAlign=middle;whiteSpace=wrap;rounded=0;dashed=1;fontSize=18;" vertex="1" parent="Ad3nmbv3oK-rRAc0MzFZ-1">
          <mxGeometry x="200" y="110" width="320" height="30" as="geometry" />
        </mxCell>
        <mxCell id="h8jy6wUSTKedPcm-Cm92-3" value="&lt;font style=&quot;font-size: 18px&quot;&gt;+&lt;/font&gt;" style="text;html=1;align=center;verticalAlign=middle;resizable=0;points=[];autosize=1;strokeColor=#6c8ebf;fillColor=#dae8fc;" vertex="1" parent="Ad3nmbv3oK-rRAc0MzFZ-1">
          <mxGeometry x="384" y="360" width="30" height="20" as="geometry" />
        </mxCell>
        <mxCell id="h8jy6wUSTKedPcm-Cm92-8" value="&lt;span style=&quot;font-size: 18px&quot;&gt;取负数&lt;/span&gt;" style="text;html=1;align=center;verticalAlign=middle;resizable=0;points=[];autosize=1;strokeColor=#6c8ebf;fillColor=#dae8fc;" vertex="1" parent="Ad3nmbv3oK-rRAc0MzFZ-1">
          <mxGeometry x="364" y="330" width="70" height="20" as="geometry" />
        </mxCell>
      </root>
    </mxGraphModel>
  </diagram>
  <diagram name="Copy of fnmadd" id="woEaVSAFVf5m4h3L5zhL">
    <mxGraphModel dx="1422" dy="754" grid="1" gridSize="10" guides="1" tooltips="1" connect="1" arrows="1" fold="1" page="1" pageScale="1" pageWidth="827" pageHeight="1169" math="0" shadow="0">
      <root>
        <mxCell id="_y2rG1UOnB2j2ZKPWZAt-0" />
        <mxCell id="_y2rG1UOnB2j2ZKPWZAt-1" parent="_y2rG1UOnB2j2ZKPWZAt-0" />
        <mxCell id="_y2rG1UOnB2j2ZKPWZAt-22" value="__m128" style="text;html=1;strokeColor=#6c8ebf;fillColor=none;align=center;verticalAlign=middle;whiteSpace=wrap;rounded=0;" vertex="1" parent="_y2rG1UOnB2j2ZKPWZAt-1">
          <mxGeometry x="80" y="165" width="60" height="30" as="geometry" />
        </mxCell>
        <mxCell id="_y2rG1UOnB2j2ZKPWZAt-23" value="__m128" style="text;html=1;strokeColor=#6c8ebf;fillColor=none;align=center;verticalAlign=middle;whiteSpace=wrap;rounded=0;" vertex="1" parent="_y2rG1UOnB2j2ZKPWZAt-1">
          <mxGeometry x="80" y="285" width="60" height="30" as="geometry" />
        </mxCell>
        <mxCell id="_y2rG1UOnB2j2ZKPWZAt-34" value="__m128" style="text;html=1;strokeColor=#6c8ebf;fillColor=none;align=center;verticalAlign=middle;whiteSpace=wrap;rounded=0;" vertex="1" parent="_y2rG1UOnB2j2ZKPWZAt-1">
          <mxGeometry x="80" y="405" width="60" height="30" as="geometry" />
        </mxCell>
        <mxCell id="_y2rG1UOnB2j2ZKPWZAt-45" value="__m128" style="text;html=1;strokeColor=#6c8ebf;fillColor=none;align=center;verticalAlign=middle;whiteSpace=wrap;rounded=0;" vertex="1" parent="_y2rG1UOnB2j2ZKPWZAt-1">
          <mxGeometry x="80" y="525" width="60" height="30" as="geometry" />
        </mxCell>
        <mxCell id="_y2rG1UOnB2j2ZKPWZAt-46" value="&lt;font style=&quot;font-size: 18px&quot;&gt;*&lt;/font&gt;" style="text;html=1;align=center;verticalAlign=middle;resizable=0;points=[];autosize=1;strokeColor=#6c8ebf;fillColor=#dae8fc;" vertex="1" parent="_y2rG1UOnB2j2ZKPWZAt-1">
          <mxGeometry x="440" y="230" width="20" height="20" as="geometry" />
        </mxCell>
        <mxCell id="_y2rG1UOnB2j2ZKPWZAt-47" value="" style="rounded=0;whiteSpace=wrap;html=1;dashed=1;fontSize=18;strokeColor=#000000;fillColor=none;" vertex="1" parent="_y2rG1UOnB2j2ZKPWZAt-1">
          <mxGeometry x="40" y="490" width="480" height="90" as="geometry" />
        </mxCell>
        <mxCell id="_y2rG1UOnB2j2ZKPWZAt-48" value="" style="rounded=0;whiteSpace=wrap;html=1;dashed=1;fontSize=18;strokeColor=#000000;fillColor=none;" vertex="1" parent="_y2rG1UOnB2j2ZKPWZAt-1">
          <mxGeometry x="40" y="90" width="480" height="380" as="geometry" />
        </mxCell>
        <mxCell id="_y2rG1UOnB2j2ZKPWZAt-49" value="&lt;i&gt;__mm_fnadd_ss(m1, m2, m3)&lt;/i&gt;" style="text;html=1;strokeColor=none;fillColor=none;align=center;verticalAlign=middle;whiteSpace=wrap;rounded=0;dashed=1;fontSize=18;" vertex="1" parent="_y2rG1UOnB2j2ZKPWZAt-1">
          <mxGeometry x="200" y="110" width="320" height="30" as="geometry" />
        </mxCell>
        <mxCell id="_y2rG1UOnB2j2ZKPWZAt-50" value="&lt;font style=&quot;font-size: 18px&quot;&gt;+&lt;/font&gt;" style="text;html=1;align=center;verticalAlign=middle;resizable=0;points=[];autosize=1;strokeColor=#6c8ebf;fillColor=#dae8fc;" vertex="1" parent="_y2rG1UOnB2j2ZKPWZAt-1">
          <mxGeometry x="440" y="350" width="30" height="20" as="geometry" />
        </mxCell>
        <mxCell id="_y2rG1UOnB2j2ZKPWZAt-52" value="" style="shape=table;startSize=0;container=1;collapsible=0;childLayout=tableLayout;dashed=1;fontSize=18;strokeColor=#000000;fillColor=none;" vertex="1" parent="_y2rG1UOnB2j2ZKPWZAt-1">
          <mxGeometry x="240" y="160" width="240" height="40" as="geometry" />
        </mxCell>
        <mxCell id="_y2rG1UOnB2j2ZKPWZAt-53" value="" style="shape=tableRow;horizontal=0;startSize=0;swimlaneHead=0;swimlaneBody=0;top=0;left=0;bottom=0;right=0;collapsible=0;dropTarget=0;fillColor=none;points=[[0,0.5],[1,0.5]];portConstraint=eastwest;dashed=1;fontSize=18;strokeColor=#000000;" vertex="1" parent="_y2rG1UOnB2j2ZKPWZAt-52">
          <mxGeometry width="240" height="40" as="geometry" />
        </mxCell>
        <mxCell id="_y2rG1UOnB2j2ZKPWZAt-54" value="a3" style="shape=partialRectangle;html=1;whiteSpace=wrap;connectable=0;overflow=hidden;fillColor=#d5e8d4;top=0;left=0;bottom=0;right=0;pointerEvents=1;dashed=1;fontSize=18;strokeColor=#82b366;" vertex="1" parent="_y2rG1UOnB2j2ZKPWZAt-53">
          <mxGeometry width="60" height="40" as="geometry">
            <mxRectangle width="60" height="40" as="alternateBounds" />
          </mxGeometry>
        </mxCell>
        <mxCell id="_y2rG1UOnB2j2ZKPWZAt-55" value="a2" style="shape=partialRectangle;html=1;whiteSpace=wrap;connectable=0;overflow=hidden;fillColor=#d5e8d4;top=0;left=0;bottom=0;right=0;pointerEvents=1;dashed=1;fontSize=18;strokeColor=#82b366;" vertex="1" parent="_y2rG1UOnB2j2ZKPWZAt-53">
          <mxGeometry x="60" width="60" height="40" as="geometry">
            <mxRectangle width="60" height="40" as="alternateBounds" />
          </mxGeometry>
        </mxCell>
        <mxCell id="_y2rG1UOnB2j2ZKPWZAt-56" value="a1" style="shape=partialRectangle;html=1;whiteSpace=wrap;connectable=0;overflow=hidden;fillColor=#d5e8d4;top=0;left=0;bottom=0;right=0;pointerEvents=1;dashed=1;fontSize=18;strokeColor=#82b366;" vertex="1" parent="_y2rG1UOnB2j2ZKPWZAt-53">
          <mxGeometry x="120" width="60" height="40" as="geometry">
            <mxRectangle width="60" height="40" as="alternateBounds" />
          </mxGeometry>
        </mxCell>
        <mxCell id="_y2rG1UOnB2j2ZKPWZAt-57" value="a0" style="shape=partialRectangle;html=1;whiteSpace=wrap;connectable=0;overflow=hidden;fillColor=#dae8fc;top=0;left=0;bottom=0;right=0;pointerEvents=1;dashed=1;fontSize=18;strokeColor=#6c8ebf;" vertex="1" parent="_y2rG1UOnB2j2ZKPWZAt-53">
          <mxGeometry x="180" width="60" height="40" as="geometry">
            <mxRectangle width="60" height="40" as="alternateBounds" />
          </mxGeometry>
        </mxCell>
        <mxCell id="_y2rG1UOnB2j2ZKPWZAt-58" value="" style="shape=table;startSize=0;container=1;collapsible=0;childLayout=tableLayout;dashed=1;fontSize=18;strokeColor=#000000;fillColor=none;" vertex="1" parent="_y2rG1UOnB2j2ZKPWZAt-1">
          <mxGeometry x="240" y="280" width="240" height="40" as="geometry" />
        </mxCell>
        <mxCell id="_y2rG1UOnB2j2ZKPWZAt-59" value="" style="shape=tableRow;horizontal=0;startSize=0;swimlaneHead=0;swimlaneBody=0;top=0;left=0;bottom=0;right=0;collapsible=0;dropTarget=0;fillColor=none;points=[[0,0.5],[1,0.5]];portConstraint=eastwest;dashed=1;fontSize=18;strokeColor=#000000;" vertex="1" parent="_y2rG1UOnB2j2ZKPWZAt-58">
          <mxGeometry width="240" height="40" as="geometry" />
        </mxCell>
        <mxCell id="_y2rG1UOnB2j2ZKPWZAt-60" value="b3" style="shape=partialRectangle;html=1;whiteSpace=wrap;connectable=0;overflow=hidden;fillColor=none;top=0;left=0;bottom=0;right=0;pointerEvents=1;dashed=1;fontSize=18;strokeColor=#000000;" vertex="1" parent="_y2rG1UOnB2j2ZKPWZAt-59">
          <mxGeometry width="60" height="40" as="geometry">
            <mxRectangle width="60" height="40" as="alternateBounds" />
          </mxGeometry>
        </mxCell>
        <mxCell id="_y2rG1UOnB2j2ZKPWZAt-61" value="b2" style="shape=partialRectangle;html=1;whiteSpace=wrap;connectable=0;overflow=hidden;fillColor=none;top=0;left=0;bottom=0;right=0;pointerEvents=1;dashed=1;fontSize=18;strokeColor=#000000;" vertex="1" parent="_y2rG1UOnB2j2ZKPWZAt-59">
          <mxGeometry x="60" width="60" height="40" as="geometry">
            <mxRectangle width="60" height="40" as="alternateBounds" />
          </mxGeometry>
        </mxCell>
        <mxCell id="_y2rG1UOnB2j2ZKPWZAt-62" value="b1" style="shape=partialRectangle;html=1;whiteSpace=wrap;connectable=0;overflow=hidden;fillColor=none;top=0;left=0;bottom=0;right=0;pointerEvents=1;dashed=1;fontSize=18;strokeColor=#000000;" vertex="1" parent="_y2rG1UOnB2j2ZKPWZAt-59">
          <mxGeometry x="120" width="60" height="40" as="geometry">
            <mxRectangle width="60" height="40" as="alternateBounds" />
          </mxGeometry>
        </mxCell>
        <mxCell id="_y2rG1UOnB2j2ZKPWZAt-63" value="b0" style="shape=partialRectangle;html=1;whiteSpace=wrap;connectable=0;overflow=hidden;fillColor=#dae8fc;top=0;left=0;bottom=0;right=0;pointerEvents=1;dashed=1;fontSize=18;strokeColor=#6c8ebf;" vertex="1" parent="_y2rG1UOnB2j2ZKPWZAt-59">
          <mxGeometry x="180" width="60" height="40" as="geometry">
            <mxRectangle width="60" height="40" as="alternateBounds" />
          </mxGeometry>
        </mxCell>
        <mxCell id="_y2rG1UOnB2j2ZKPWZAt-64" value="" style="shape=table;startSize=0;container=1;collapsible=0;childLayout=tableLayout;dashed=1;fontSize=18;strokeColor=#000000;fillColor=none;" vertex="1" parent="_y2rG1UOnB2j2ZKPWZAt-1">
          <mxGeometry x="240" y="400" width="240" height="40" as="geometry" />
        </mxCell>
        <mxCell id="_y2rG1UOnB2j2ZKPWZAt-65" value="" style="shape=tableRow;horizontal=0;startSize=0;swimlaneHead=0;swimlaneBody=0;top=0;left=0;bottom=0;right=0;collapsible=0;dropTarget=0;fillColor=none;points=[[0,0.5],[1,0.5]];portConstraint=eastwest;dashed=1;fontSize=18;strokeColor=#000000;" vertex="1" parent="_y2rG1UOnB2j2ZKPWZAt-64">
          <mxGeometry width="240" height="40" as="geometry" />
        </mxCell>
        <mxCell id="_y2rG1UOnB2j2ZKPWZAt-66" value="c3" style="shape=partialRectangle;html=1;whiteSpace=wrap;connectable=0;overflow=hidden;fillColor=none;top=0;left=0;bottom=0;right=0;pointerEvents=1;dashed=1;fontSize=18;strokeColor=#000000;" vertex="1" parent="_y2rG1UOnB2j2ZKPWZAt-65">
          <mxGeometry width="60" height="40" as="geometry">
            <mxRectangle width="60" height="40" as="alternateBounds" />
          </mxGeometry>
        </mxCell>
        <mxCell id="_y2rG1UOnB2j2ZKPWZAt-67" value="c2" style="shape=partialRectangle;html=1;whiteSpace=wrap;connectable=0;overflow=hidden;fillColor=none;top=0;left=0;bottom=0;right=0;pointerEvents=1;dashed=1;fontSize=18;strokeColor=#000000;" vertex="1" parent="_y2rG1UOnB2j2ZKPWZAt-65">
          <mxGeometry x="60" width="60" height="40" as="geometry">
            <mxRectangle width="60" height="40" as="alternateBounds" />
          </mxGeometry>
        </mxCell>
        <mxCell id="_y2rG1UOnB2j2ZKPWZAt-68" value="c1" style="shape=partialRectangle;html=1;whiteSpace=wrap;connectable=0;overflow=hidden;fillColor=none;top=0;left=0;bottom=0;right=0;pointerEvents=1;dashed=1;fontSize=18;strokeColor=#000000;" vertex="1" parent="_y2rG1UOnB2j2ZKPWZAt-65">
          <mxGeometry x="120" width="60" height="40" as="geometry">
            <mxRectangle width="60" height="40" as="alternateBounds" />
          </mxGeometry>
        </mxCell>
        <mxCell id="_y2rG1UOnB2j2ZKPWZAt-69" value="c0" style="shape=partialRectangle;html=1;whiteSpace=wrap;connectable=0;overflow=hidden;fillColor=#dae8fc;top=0;left=0;bottom=0;right=0;pointerEvents=1;dashed=1;fontSize=18;strokeColor=#6c8ebf;" vertex="1" parent="_y2rG1UOnB2j2ZKPWZAt-65">
          <mxGeometry x="180" width="60" height="40" as="geometry">
            <mxRectangle width="60" height="40" as="alternateBounds" />
          </mxGeometry>
        </mxCell>
        <mxCell id="_y2rG1UOnB2j2ZKPWZAt-70" value="" style="shape=table;startSize=0;container=1;collapsible=0;childLayout=tableLayout;dashed=1;fontSize=18;strokeColor=#000000;fillColor=none;" vertex="1" parent="_y2rG1UOnB2j2ZKPWZAt-1">
          <mxGeometry x="240" y="520" width="240" height="40" as="geometry" />
        </mxCell>
        <mxCell id="_y2rG1UOnB2j2ZKPWZAt-71" value="" style="shape=tableRow;horizontal=0;startSize=0;swimlaneHead=0;swimlaneBody=0;top=0;left=0;bottom=0;right=0;collapsible=0;dropTarget=0;fillColor=none;points=[[0,0.5],[1,0.5]];portConstraint=eastwest;dashed=1;fontSize=18;strokeColor=#000000;" vertex="1" parent="_y2rG1UOnB2j2ZKPWZAt-70">
          <mxGeometry width="240" height="40" as="geometry" />
        </mxCell>
        <mxCell id="_y2rG1UOnB2j2ZKPWZAt-72" value="a3" style="shape=partialRectangle;html=1;whiteSpace=wrap;connectable=0;overflow=hidden;fillColor=#d5e8d4;top=0;left=0;bottom=0;right=0;pointerEvents=1;dashed=1;fontSize=18;strokeColor=#82b366;" vertex="1" parent="_y2rG1UOnB2j2ZKPWZAt-71">
          <mxGeometry width="60" height="40" as="geometry">
            <mxRectangle width="60" height="40" as="alternateBounds" />
          </mxGeometry>
        </mxCell>
        <mxCell id="_y2rG1UOnB2j2ZKPWZAt-73" value="a2" style="shape=partialRectangle;html=1;whiteSpace=wrap;connectable=0;overflow=hidden;fillColor=#d5e8d4;top=0;left=0;bottom=0;right=0;pointerEvents=1;dashed=1;fontSize=18;strokeColor=#82b366;" vertex="1" parent="_y2rG1UOnB2j2ZKPWZAt-71">
          <mxGeometry x="60" width="60" height="40" as="geometry">
            <mxRectangle width="60" height="40" as="alternateBounds" />
          </mxGeometry>
        </mxCell>
        <mxCell id="_y2rG1UOnB2j2ZKPWZAt-74" value="a1" style="shape=partialRectangle;html=1;whiteSpace=wrap;connectable=0;overflow=hidden;fillColor=#d5e8d4;top=0;left=0;bottom=0;right=0;pointerEvents=1;dashed=1;fontSize=18;strokeColor=#82b366;" vertex="1" parent="_y2rG1UOnB2j2ZKPWZAt-71">
          <mxGeometry x="120" width="60" height="40" as="geometry">
            <mxRectangle width="60" height="40" as="alternateBounds" />
          </mxGeometry>
        </mxCell>
        <mxCell id="_y2rG1UOnB2j2ZKPWZAt-75" value="&lt;font style=&quot;font-size: 12px&quot;&gt;a0*b0+c0&lt;/font&gt;" style="shape=partialRectangle;html=1;whiteSpace=wrap;connectable=0;overflow=hidden;fillColor=#dae8fc;top=0;left=0;bottom=0;right=0;pointerEvents=1;dashed=1;fontSize=18;strokeColor=#6c8ebf;" vertex="1" parent="_y2rG1UOnB2j2ZKPWZAt-71">
          <mxGeometry x="180" width="60" height="40" as="geometry">
            <mxRectangle width="60" height="40" as="alternateBounds" />
          </mxGeometry>
        </mxCell>
      </root>
    </mxGraphModel>
  </diagram>
</mxfile>
